<?xml version="1.0" encoding="UTF-8" standalone="no"?>
<svg id="svg4476" xmlns:rdf="http://www.w3.org/1999/02/22-rdf-syntax-ns#" xmlns="http://www.w3.org/2000/svg" height="1127" viewBox="0 0 4251 1127" width="4251" version="1.1" xmlns:cc="http://creativecommons.org/ns#" xmlns:dc="http://purl.org/dc/elements/1.1/">
<path id="path4486" d="m3624 1126.5c-0.825-0.2046-7.575-0.8959-15-1.5361-22.894-1.974-47.018-5.988-60.5-10.066-3.3-0.9983-9.825-2.8181-14.5-4.044s-11.65-3.5354-15.5-5.1322c-3.85-1.5969-9.025-3.589-11.5-4.4269-18.7-6.3311-65.708-32.752-86.14-48.415-6.9-5.2-26.9-23.2-26.9-24.1 0-4.0471-4.7809-3.8803-16.292 0.5684-32.015 12.373-83.86 16.693-121.21 10.098-4.4-0.7769-9.8-1.6809-12-2.0089-21.788-3.2484-52.668-12.028-66.252-18.836-2.6112-1.3086-6.4297-2.685-8.4855-3.0587-2.0575-0.3739-4.1757-1.4975-4.7118-2.4992-0.5357-1.0009-2.4537-2.4199-4.2622-3.1534-10.214-4.1425-22.791-13.211-41.346-29.811-2.2317-1.9966-7.038-6.2767-10.681-9.5114-4.1934-3.7238-7.7704-8.0341-9.751-11.75-1.7204-3.2278-3.5167-5.8688-3.9918-5.8688s-1.3847-1.5784-2.0214-3.5077c-1.6514-5.0037-2.7031-5.2999-23.114-6.5105-10.111-0.59968-20.858-1.4986-23.883-1.9976-3.025-0.49901-15.625-1.3658-28-1.9261-12.375-0.56036-23.537-1.2316-24.805-1.4915-2.6578-0.54518-57.682-1.276-154.2-2.0481-37.125-0.297-95.175-0.76232-129-1.0341-33.825-0.27173-82.2-0.72044-107.5-0.99712s-71.425-0.72807-102.5-1.0031c-31.075-0.27502-78.1-0.73523-104.5-1.0227-26.4-0.28745-99.447-0.72871-162.33-0.98056-62.88-0.25185-114.65-0.65815-115.05-0.90289-0.396-0.24474-30.399-0.71108-66.673-1.0363-36.274-0.32524-76.158-0.80625-88.632-1.0689-12.473-0.26267-73.898-0.71988-136.5-1.016-62.602-0.29613-115.17-0.93458-116.82-1.4188-1.65-0.48419-5.6419-1.18-8.871-1.5462-16.363-1.8559-37.773-10.216-46.584-18.189-6.5-5.77-13.4-9.26-18.6-9.26-4.3462 0-7.5071-5.4153-5.6017-9.5971 0.6257-1.3733 1.1377-2.6732 1.1377-2.8887 0-1.0728-9.0035-1.5827-10.816-0.6126-2.9262 1.5661-5.1838-1.02-5.1838-5.9379 0-2.8244-0.5305-4.1773-1.9323-4.9275-1.0627-0.56877-2.2484-2.0471-2.6348-3.2852-0.8971-2.8748-2.2185-3.7167-5.863-3.7358l-3-0.02 3.4 3c1.8481 1.65 3.9841 3 4.7465 3 4.5554 0 0.6558 5.5098-4.2465 6l-5 0.5-1.2884 6c-0.7087 3.3-1.9125 9.825-2.6752 14.5-2.1164 12.973-2.8334 15.744-10.479 40.5-3.2533 10.534-11.302 28.343-18.344 40.587-1.7673 3.0729-4.7275 8.3399-6.5783 11.704-1.8507 3.3645-4.7757 7.8253-6.5 9.9128-1.7242 2.0877-5.3041 7.0344-7.9553 10.993-10.871 16.232-43.767 47.566-60.18 57.323-2.2 1.3079-5.575 3.6743-7.5 5.2588-6.0266 4.9605-27.697 16.384-46.977 24.765-10.188 4.4282-19.207 8.4192-20.043 8.8689-5.1635 2.7769-31.075 9.1789-40.716 10.06-5.9202 0.5409-15.714 1.6947-21.764 2.5641-53.295 7.659-130.03-2.8623-172.5-23.653-6.875-3.3653-16.816-8.0129-22.091-10.328-16.181-7.1017-52.485-30.813-70.909-46.313-1.925-1.6195-5.4945-4.2489-7.9323-5.8432-5.2114-3.4083-9.8669-7.3232-15.494-13.029-2.2404-2.2718-6.1976-6.0292-8.7937-8.3498l-4.7201-4.2193-21.28 4.5672c-43.597 9.3572-85.292 10.126-121.98 2.248-9.1852-1.9723-19.31-3.7538-22.5-3.959-5.9384-0.382-7.6643-0.8847-19.8-5.7675-3.85-1.5491-10.15-3.7861-14-4.9711s-11.275-4.2713-16.5-6.8585-14-6.679-19.5-9.0928c-27.504-12.071-69.16-47.014-85.152-71.43-3.6154-5.52-7.353-11.161-8.3059-12.536-2.7405-3.9545-5.2753-8.9834-8.0648-16-2.0358-5.1208-2.9972-6.4539-4.5308-6.2827-2.851 0.31819-18.45-3.2277-29.947-6.8072-5.5-1.7125-13.375-3.9564-17.5-4.9865s-11.163-2.7843-15.641-3.8982c-4.4775-1.1139-9.4275-2.0307-11-2.0372-1.5725-0.007-5.3341-0.69675-8.3591-1.5338-3.025-0.83708-10-2.5845-15.5-3.8831-11.99-2.831-30.362-7.7152-40-10.634-3.85-1.166-9.925-2.7644-13.5-3.5518-6.8977-1.5194-17.831-5.0539-19.5-6.3042-1.5952-1.1947-13.454-4.8229-20-6.1191-3.3-0.65343-9.825-2.4353-14.5-3.9598-4.675-1.5244-12.775-4.0328-18-5.5742s-11.3-4.0878-13.5-5.6588-6.475-4.6863-9.5-6.9229c-7.4212-5.4871-26.827-14.562-33.824-15.816-20.628-3.6995-54.294-7.995-62.676-7.9968-2.75-0.0006-9.275-0.66067-14.5-1.4668-12.916-1.9927-28.204-3.6455-42-4.5404-6.325-0.4103-19.6-2.1741-29.5-3.9196s-24.525-4.2897-32.5-5.6537c-7.975-1.3641-18.325-3.3562-23-4.427s-10.975-2.2121-14-2.5363c-5.024-0.5384-10.339-1.39-29-4.647-16.619-2.9005-54.448-18.168-68.146-27.502-4.25-2.81-23.586-18.81-25.87-21.31-0.275-0.31-3.2-2.61-6.5-5.13-5.381-4.11-10.217-9.02-19.531-19.83-1.659-1.92-7.931-8.91-13.938-15.52-6.008-6.61-13.207-14.86-15.998-18.34s-8.617-10.28-12.947-15.11c-10.133-11.3-10.895-12.53-13.159-21.24-3.1648-12.19-1.777-18.24 5.666-24.7 2.1489-1.87 11.708-11.01 21.242-20.32 21.383-20.88 35.387-30.34 55.96-37.79 7.526-2.7269 7.5323-2.7372 11.835-19.338 4.3211-16.674 4.3311-18.336 0.12009-20.121-24.349-10.319-14.306-51.876 11.598-47.991 5.2026 0.78019 7.0762-0.64578 8.1135-6.1752 2.4276-12.94 21.725-30.224 50.06-44.835 3.8384-1.9794 10.579-5.896 14.979-8.7036 8.7598-5.5895 11.996-7.0176 30.346-13.391 14.444-5.0168 14.443-5.0161 20.021-15.137 2.3607-4.283 6.7419-12.062 9.736-17.287s7.0684-12.65 9.0541-16.5 5.5158-9.925 7.8448-13.5 6.5748-11 9.4351-16.5c11.46-22.036 18.441-34.446 24.471-43.5 3.4795-5.225 8.0205-12.875 10.091-17 2.0706-4.125 4.9933-9.3 6.4949-11.5s5.0552-8.05 7.8969-13 6.8498-11.7 8.907-15c2.0571-3.3 6.393-10.725 9.6354-16.5 10.25-18.256 16.749-29.09 26.096-43.5 4.9945-7.7 10.273-16.315 11.731-19.145 1.4574-2.8297 5.0628-8.9047 8.0121-13.5 2.94-4.6 8.46-14.21 12.25-21.36 10.55-19.906 10.57-19.939 17.14-29.31 9.28-13.229 27.62-25.93 41.33-28.617 1.925-0.37729 5.975-1.5267 9-2.5542 9.744-3.3099 24.029-5.8797 44.5-8.0055 11-1.1423 23.825-2.5057 28.5-3.0299 4.675-0.52417 13.95-1.4484 20.611-2.0539 19.77-1.7963 194.35-1.7398 334.89 0.1091 155.05 2.0399 309.67 3.519 326 3.1186 19.791-0.48522 18.178-0.49045 80.5 0.26134 31.075 0.37486 63.476 1.0929 72.003 1.5957 9.7087 0.5725 18.866 0.55446 24.5-0.048272 4.9484-0.52934 16.647-0.74722 25.997-0.48418s26.225 0.72943 37.5 1.0364c11.275 0.307 70.225 0.75943 131 1.0054s118.82 0.67011 129 0.94253c10.175 0.27242 61.475 0.72644 114 1.0089 52.525 0.2825 102.7 0.74371 111.5 1.0249 8.8 0.28121 38.725 0.7461 66.5 1.0331 27.775 0.28698 64.675 0.73084 82 0.98635s74.7 0.69942 127.5 0.98647 102.75 0.73492 111 0.99526 38.85 0.72891 68 1.0413c29.15 0.31236 55.025 0.96396 57.5 1.448 2.475 0.48405 8.1 1.1463 12.5 1.4717 4.4 0.32536 13.175 1.9384 19.5 3.5845s14.2 3.6329 17.5 4.4151 11.175 3.2683 17.5 5.5246 13.219 4.5418 15.319 5.0789c3.8832 0.99286 9.6151 3.8515 22.181 11.062 3.85 2.2092 12.85 7.0631 20 10.786 15.533 8.0887 20.363 11.064 28.083 17.304 3.2098 2.5941 7.0315 4.9791 8.4927 5.3 1.4611 0.32092 5.7054 3.1485 9.4316 6.2834 9.7568 8.2085 10.804 8.9714 17.891 13.031 8.3833 4.8027 19.733 12.79 26.602 18.721 3.025 2.612 6.9443 5.3547 8.7095 6.0949 1.7652 0.74018 4.9332 3.1397 7.04 5.3322s6.8242 6.1316 10.483 8.7535c9.0917 6.5148 15.809 11.814 22.709 17.917 3.2027 2.8325 7.1134 5.961 8.6906 6.9522 1.5771 0.99125 4.6727 3.4217 6.8791 5.4009s6.7064 5.4886 10 7.7985 8.2384 6.0017 10.988 8.204c2.75 2.2022 8.9747 6.7385 13.833 10.081 4.858 3.3421 12.058 9.1196 16 12.839 3.9421 3.7193 9.4174 8.0281 12.167 9.575 2.75 1.5469 7.25 4.9248 10 7.5065s9.1371 7.2787 14.194 10.438c5.0565 3.1592 10.682 7.1759 12.5 8.9261 1.8185 1.7502 4.8814 4.2646 6.8064 5.5877 1.925 1.323 5.3736 4.0112 7.6636 5.9736 2.2899 1.9624 6.7814 5.3681 9.981 7.5681s7.851 5.8328 10.336 8.0728c2.4855 2.24 8.119 6.7024 12.519 9.9163 4.4 3.214 10.7 8.4323 14 11.596 3.3 3.164 8.091 7.0267 10.647 8.5837 6.319 3.8497 23.574 17.894 25.11 20.438 0.684 1.1327 3.0436 2.9846 5.2436 4.1155 2.2 1.1308 5.35 3.3936 7 5.0283 5.3362 5.2869 17.118 12.509 21.657 13.276 2.3741 0.40109 6.0665 1.3467 8.2054 2.1014 2.8283 0.99789 9.7866 1.3774 25.513 1.3915 13.8 0.0124 25.243 0.5542 31.624 1.4973 5.5 0.81282 17.875 1.7217 27.5 2.0198 9.625 0.29806 22.225 1.2311 28 2.0735 5.775 0.84234 20.175 1.9615 32 2.4869 21.403 0.95107 31.91 1.7515 50 3.8089 18.939 2.1541 44.891 4.0045 63 4.4923 10.175 0.27404 21.2 0.99401 24.5 1.6 3.3 0.60593 9.825 1.3135 14.5 1.5724 4.675 0.25889 10.525 0.65954 13 0.89036 2.475 0.23081 10.125 0.88836 17 1.4612 6.875 0.57287 16.1 1.4966 20.5 2.0528 4.4 0.55616 13.4 1.4737 20 2.039s16.275 1.4248 21.5 1.91c21.535 1.9997 38.041 3.3234 88 7.0567 48.239 3.6049 83.591 6.1242 106.5 7.5897 4.95 0.31665 13.275 1.1984 18.5 1.9596 5.225 0.76111 16.25 1.8732 24.5 2.4712 14.826 1.0747 18.026 1.402 42.5 4.3464 13.419 1.6144 34.147 3.5095 45.5 4.1598 3.85 0.22055 15.036 1.1052 24.858 1.9658 13.741 1.2041 31.26 1.5559 76 1.5264 31.978-0.0211 69.167 0.42836 82.642 0.9988 57.64 2.4401 68.819 3.0319 74.5 3.9443 3.3 0.52999 11.625 1.4416 18.5 2.0257 6.875 0.58414 15.425 1.483 19 1.9975 3.575 0.51447 11 1.4431 16.5 2.0637 36.32 4.0979 79.265 14.309 88 20.923 0.55 0.41649 7.6416 4.189 15.759 8.3832 8.1175 4.1943 19.818 11.138 26 15.43 6.1825 4.292 12.591 8.6518 14.241 9.6882 15.284 9.6009 49.61 39.538 55.532 48.432 1.6063 2.4122 4.2326 5.3372 5.8363 6.5 21.472 15.569 30.062 29.807 27.73 45.963-0.3297 2.2834-0.8432 6.1766-1.141 8.6516-0.603 5.0121-4.625 18.208-7.5516 24.777-1.048 2.3522-1.9068 4.8272-1.9084 5.5-0.01 4.0704-17.148 33.328-25.092 42.837-7.1463 8.5533-7.366 10.184-1.6549 12.283 6.9012 2.5364 24.972 8.706 28.685 9.7935 1.8891 0.55328 4.4071 1.643 5.5954 2.4217 1.1884 0.77864 4.8793 2.4812 8.2021 3.7834 7.8387 3.0719 18.002 12.605 13.439 12.605-0.4559 0-1.7705 2.1375-2.9212 4.75-6.5867 14.954-8.5775 18.935-12.295 24.59-2.4561 3.7358-5.847 7.3472-8.4369 8.9857-2.3817 1.5068-5.0442 3.829-5.9166 5.1605-0.8725 1.3315-3.7271 3.644-6.3437 5.139-2.6166 1.4949-6.72 4.287-9.1186 6.2046-3.8594 3.0854-5.2649 3.566-12.215 4.1771-7.8326 0.68867-10.924 1.9975-10.924 4.6254 0 1.9145-10.306 15.684-13.716 18.326-2.7289 2.114-23.098 21.171-34.247 32.042-7.5005 7.3129-19.442 16.41-30.812 23.472-5.1011 3.1684-9.8544 6.5885-10.563 7.6001-4.0987 5.8517-17.762 11.166-21.948 8.537-3.2552-2.0448-13.002-2.5692-66.899-3.5989l-48.684-0.93015-6.6384 3.4602c-3.6511 1.9031-7.9984 3.4602-9.6605 3.4602-1.6622 0-6.072 0.92638-9.7997 2.0586l-6.7776 2.0586-0.1389 6.6914c-0.4811 23.185-5.1131 48.162-14.779 79.691-1.2894 4.2059-9.1974 22.404-12.558 28.899-4.8903 9.4512-9.5314 17.776-11.763 21.101-1.477 2.2-4.7243 7.15-7.2161 11-6.8606 10.6-25.962 33.043-35.387 41.579-3.1749 2.8752-6.7041 6.2743-7.8428 7.5535-1.1387 1.2793-3.7248 3.5728-5.747 5.0969-2.0222 1.524-7.0444 5.3318-11.16 8.4618-4.116 3.13-9.999 7.1104-13.073 8.8454-3.0743 1.735-5.8344 3.5507-6.1336 4.0348-0.7958 1.2876-12.919 7.9289-14.474 7.9289-0.7288 0-2.0356 0.6287-2.9039 1.3972-4.5349 4.0135-30.597 15.749-43.407 19.545-22.796 6.756-56.015 14.049-64.138 14.081-3.3189 0.013-7.8344 0.452-10.034 0.9754-4.0524 0.964-34.74 2.2232-37.5 1.5386zm50.307-74.072c23.028-1.5158 58.903-12.648 77.102-23.925 53.74-33.299 91.106-82.885 97.997-130.04 0.3215-2.2 1.0096-6.25 1.5292-9 7.2876-38.569-3.9261-101.8-23.636-133.27-1.8149-2.8982-3.2999-5.4405-3.2999-5.6495 0-2.2992-13.091-19.179-24.469-31.551-15.303-16.64-41.808-36.031-59.259-43.356-3.1743-1.3323-8.4715-3.5759-11.772-4.9857-63.717-27.22-133.36-15.736-196.63 32.425-11.926 9.078-31.736 32.153-41.574 48.425-50.896 84.182-37.375 180.7 35.655 254.52 4.2666 4.3128 11.65 9.3278 22.045 14.974 6.325 3.4355 14.302 7.9827 17.726 10.105 3.424 2.1222 6.477 3.8586 6.7844 3.8586s5.606 1.9849 11.774 4.411c19.455 7.6515 39.176 12.239 58.216 13.542 10.774 0.7375 13.934 0.6891 31.807-0.4874zm-28.508-16c-0.2936-0.2936-2.7311-0.5573-5.4167-0.5859-4.5191-0.048-19.256-2.187-23.883-3.4663-29.351-8.115-50.809-18.482-67.903-32.805-3.3535-2.81-7.953-6.3684-10.221-7.9077-12.589-8.5431-34.405-36.949-43.737-56.946-7.0044-15.01-12.891-33.749-14.648-46.627-0.5724-4.1955-1.4843-10.103-2.0263-13.128-1.9028-10.619-1.2895-35.819 1.156-47.5 2.7446-13.109 6.3144-26.355 8.0074-29.71 1.0295-2.0406 1.8718-4.2421 1.8718-4.8923 0-4.2256 15.232-34.182 21.739-42.755 11.594-15.274 25.783-29.518 38.761-38.914 2.2-1.5926 4.6569-3.6931 5.4597-4.6676 3.4476-4.1849 30.745-19.562 34.726-19.562 0.5992 0 3.9524-1.3295 7.4516-2.9545 21.647-10.052 70.354-13.377 95.862-6.5428 3.025 0.81046 6.4815 1.4789 7.6811 1.4854 5.6924 0.031 40.727 14.795 48.819 20.573 1.65 1.1782 4.575 2.9441 6.5 3.9243 1.925 0.98015 5.525 3.5625 8 5.7386s6.6985 5.8283 9.3856 8.1161c25.701 21.882 48.054 55.875 55.091 83.78 0.7462 2.9591 2.0639 7.8551 2.9281 10.88 0.8643 3.025 1.5767 6.8728 1.5832 8.5507 0.01 1.6779 0.9022 7.0779 1.9903 12 5.0664 22.919 0.3101 70.833-8.8796 89.449-10.403 21.075-13.749 27.043-18.503 33-2.8528 3.575-6.2847 8.075-7.6266 10-9.1602 13.141-51.633 50-57.615 50-0.284 0-3.7424 1.6289-7.6853 3.6197-20.584 10.393-53.876 18.363-76.752 18.374-6.3709 0-11.824-0.2344-12.117-0.528zm7.1653-48.4c1.3297-2.4845 1.226-7.9198-0.304-15.937l-1.2159-6.3712-5.9725-1.864c-9.9514-3.1059-12.863-1.7058-11.14 5.3565 0.302 1.2375-0.029 5.2879-0.735 9.001-1.9243 10.117-0.6557 11.333 12.118 11.613 5.2041 0.11403 6.3832-0.17841 7.25-1.7981zm24.498 0.58538c2.2257-1.6274 1.6181-11.349-1.2493-19.989l-1.8-5.1-5.5679-0.29447c-3.0624-0.16196-6.8428 0.19022-8.401 0.78263l-2.8329 1.0771 0.6179 10.8c0.8466 14.797 0.3974 14.135 9.5998 14.135 4.8842 0 8.3767-0.49347 9.5465-1.3489zm21.541-5.2119c10.833-3.422 11.057-5.3092 2.3383-19.689-3.938-6.4952-4.6087-6.6896-14.734-4.2713-8.0243 1.9165-8.1862 2.1831-6.1784 10.176 4.3443 17.294 5.2753 17.985 18.575 13.784zm-74.046-0.82694c1.3454-3.5386 3.2143-21.848 2.3167-22.695-4.2811-4.0436-10.599-2.8544-12.708 2.392-0.9265 2.3051-2.9947 6.7763-4.5959 9.936-3.5515 7.008-3.1926 8.1431 3.3733 10.668 7.1976 2.7678 10.479 2.6829 11.614-0.30064zm-22.8-8.3c2.019-2.3274 7.7919-16.914 7.7919-19.688 0-4.0308-6.9093-6.4043-9.4738-3.2545-5.8646 7.2034-12.642 17.857-12.352 19.415 0.772 4.1389 11.224 6.7657 14.034 3.5269zm121.58-1.6419c9.496-4.8155 10.58-8.1668 4.0777-12.604-2.7137-1.8518-6.4918-5.5353-8.3958-8.1855-3.9897-5.5534-5.0058-5.7581-11.037-2.2235-5.4551 3.1969-5.4724 3.956-0.3306 14.501 6.0856 12.481 6.942 12.946 15.686 8.5117zm-136.04-17.494c7.1158-10.671 7.433-12.142 3.2595-15.114-8.7393-6.2229-25.808 14.186-17.766 21.242 6.0281 5.2896 7.2316 4.7812 14.507-6.1288zm160.69-0.97748c8.2165-7.5973 8.9407-9.8649 5.0477-15.806-1.217-1.8575-15.186-9.3531-17.372-9.3217-0.3351 0.005-3.6808 2.8173-7.4351 6.25l-6.8259 6.2413 1.5041 3.5c0.8273 1.925 3.7338 5.898 6.4591 8.8288l4.955 5.3288 4.8668-0.69207c3.645-0.51833 5.8542-1.6051 8.7999-4.3288zm-176.22-13.05 7.9242-7.9135-1.6874-3.3365c-4.7696-9.431-9.9543-9.4107-19.56 0.0766-0.8837 0.87283-2.7962 2.5965-4.25 3.8304-3.5188 2.9865-3.3612 4.0936 1.4419 10.126 5.489 6.8939 6.6407 6.6953 16.132-2.7829zm101.7-6.21c70.239-14.214 84.966-112.54 22.421-149.7-16.54-9.826-46.865-14.707-55.643-8.9551-1.4486 0.94914-6.1538 2.6649-10.456 3.8129-16.007 4.2709-36.099 23.164-44.624 41.961-27.481 60.591 23.657 125.96 88.302 112.88zm91.641-1.132c6.8526-7.7491 6.7376-9.5311-0.8987-13.923-10.889-6.2626-16.604-7.1586-20.29-3.1809-3.5633 3.8448-3.0671 5.705 2.67 10.01 13.476 10.113 15.249 10.792 18.519 7.0938zm-208.6-10.96c10.415-8.1707 10.8-9.3944 5.5707-17.679-3.0866-4.8895-3.5297-4.9498-8.9042-1.2109-2.2899 1.593-6.751 4.5124-9.9135 6.4876-6.5414 4.0855-6.8131 5.092-3.1112 11.528 5.6872 9.888 4.9205 9.847 16.358 0.87394zm219.87-7.5933c2.4582-3.4522 6.1361-12.934 6.1368-15.821 0.0007-3.1694-8.3788-5.9992-19.445-6.5665l-5.9458-0.30482-3.2391 6.5c-4.0901 8.2079-4.0879 8.3502 0.187 11.611 8.4216 6.4235 19.391 8.6767 22.306 4.582zm-229.8-14.84c10.032-6.8545 10.366-7.3228 8.4673-11.867-1.4006-3.3521-1.8232-3.6483-4.3081-3.0195-1.5154 0.38348-6.234 1.0504-10.486 1.482-13.099 1.3298-14.574 3.6067-9.6664 14.921 2.4602 5.6718 5.9583 5.3401 15.993-1.5163zm239.87-14.299c3.4938-6.5282 1.0434-9.3088-9.6564-10.958-14.367-2.2139-17.308-1.3146-17.308 5.2909 0 3.3324 1.9029 4.2184 12.04 5.6064 4.651 0.63681 8.6446 1.3461 8.8747 1.5762 1.172 1.172 5.144 0.17666 6.0498-1.5159zm-240.5-5.97c5.4204-1.8548 6.4536-4.1996 5.0779-11.524l-0.576-3.0672-13.501-0.23791-13.501-0.23791v5.8387c0 3.2113 0.5105 7.303 1.1344 9.0928l1.1344 3.2541 7.6156-0.70369c4.1886-0.38702 9.8656-1.4736 12.616-2.4146zm242.95-10.163c0.5226-0.51124 0.9726-4.4169 1-8.6792l0.05-7.7497-6-0.83996c-18.34-2.5674-25.476 1.3865-22.041 12.211 1.5436 4.8636 23.066 8.8966 26.991 5.0576zm-240.38-11.964c2.1877-1.1708 2.5632-4.2612 0.6843-5.6316-3.0852-2.2502-23.705-6.6154-25.238-5.3429-1.8342 1.5223-2.0171 8.3545-0.2617 9.7797 2.7447 2.2284 21.222 3.118 24.816 1.1949zm239.96-13.496c1.4571-1.7557-0.048-15.891-1.8881-17.731-1.3484-1.3484-24.742 0.46594-26.317 2.0411-1.3627 1.3627 0.3661 13.537 2.2436 15.799 1.7714 2.1345 24.178 2.0402 25.962-0.10924zm-238.7-2.72c1.8134-1.3462 4.3116-11.71 3.3972-14.093-1.393-3.6302-23.024-7.1893-25.944-4.2689-2.2848 2.2848-3.3589 11.436-1.5541 13.241 3.3551 3.355 21.334 7.1752 24.101 5.1209zm228.87-20.893c6.6874-1.4601 6.9785-3.9733 1.7934-15.479-3.7613-8.3464-27.506 2.3359-25.342 11.401 1.4943 6.2584 8.2252 7.4242 23.548 4.0785zm-220.2-5.5528c3.973-5.0509 2.6567-6.9446-8.975-12.911-13.016-6.6769-12.454-6.7126-16.032 1.0185-4.732 10.224-4.1832 11.093 8.2202 13.024 13.038 2.0298 14.371 1.9399 16.787-1.1312zm205.5-16.14 9-4.67-0.3-4.5c-0.3087-5.073-4.9264-10.153-8.403-9.2435-2.7502 0.71922-16.823 16.105-16.823 18.392 0 7.0844 2.8385 7.0888 16.475 0.0257zm-192.81-5.8676c2.6608-3.6813 5.2112-7.3054 5.6676-8.0538 0.9725-1.5947-1.7315-6.253-3.6298-6.253-0.6896 0-3.6008-1.7635-6.4694-3.9189-9.5246-7.1566-12.27-6.5512-19.676 4.3386-6.6827 9.8267-5.6528 11.649 10.288 18.206 7.9847 3.2843 8.4235 3.1471 13.82-4.3187zm180.66-10.428c9.1528-8.5685 9.6347-9.4843 7.0598-13.414-2.5115-3.833-2.0394-4.089-15.556 8.4374-6.1602 5.709-6.7822 7.2922-4.2725 10.875 2.3549 3.3621 3.3844 2.8864 12.768-5.8986zm-164.27-8.0463c5.6652-4.5526 3.1131-10.863-7.6925-19.022-9.9957-7.5468-22.228 3.1438-12.521 10.944 14.312 11.501 15.408 11.939 20.214 8.0777zm148.76 0.18738c2.0255-1.639 6.0452-4.7995 8.9327-7.0233 7.5322-5.8009 4.5447-13.491-7.4704-19.23-2.7363-1.307-4.2017-0.25269-6.8641 4.9385-1.0535 2.0542-3.153 5.749-4.6655 8.2107-6.2563 10.183 1.3853 20.13 10.067 13.104zm-132.72-11.736c5.3762-3.1758-5.1715-27.004-10.969-24.78-10.965 4.2078-12.482 7.8888-5.877 14.262 2.8875 2.7861 6.5318 6.6783 8.0985 8.6494 3.2057 4.0333 4.5838 4.3277 8.7472 1.8682zm118.55-9.1857c6.7088-12.605 6.5877-13.19-3.8113-18.398-10.615-5.3161-10.536-5.3548-13.924 6.8224-4.1618 14.962-3.9905 15.815 4.0218 20.024 6.8605 3.6046 7.5111 3.2038 13.713-8.4491zm-99.102-0.11798 4.7108-2.0193-0.5047-4.477c-0.535-4.7466-6.5485-19.193-8.2632-19.851-5.5464-2.1283-18.779 6.1092-16.285 10.137 0.9293 1.5009 3.0964 5.4289 4.8157 8.7289 5.4008 10.366 6.9983 11.136 15.526 7.4807zm74.683-10.429c5.1462-13.262 5.0522-13.621-4.1413-15.846-10.793-2.6122-12.607-0.74019-13.759 14.203-0.6726 8.7228-0.7657 8.5709 6.4723 10.567 7.1221 1.9645 7.2375 1.8744 11.428-8.9243zm-50.438 4.5316c5.6095-1.0846 5.2258-0.18053 5.6017-13.198 0.4681-16.208-0.8199-17.227-16.644-13.172-8.1551 2.09-8.6575 3.1016-5.7366 11.552 5.8099 16.809 5.9308 16.915 16.779 14.818zm25.2-3.06c0.6411-2.3251 2.5642-12.024 3.6007-18.161 1.1311-6.6963-13.68-9.6465-16.35-3.2567-1.7202 4.1171-1.2189 18.983 0.7661 22.718 1.6156 3.0399 11.069 2.0143 11.983-1.3001zm-2302.9 300.6c25.832-4.9513 43.674-12.022 69.838-27.676 14.034-8.397 40.262-32.401 48.508-44.396 58.9-85.674 58.639-170.99-0.7581-247.79-9.9106-12.815-32.002-33.162-43.926-40.457-48.88-29.904-94.021-39.202-142-29.247-5.225 1.0841-10.517 1.9769-11.759 1.9842-1.2427 0.007-8.4267 2.4881-15.964 5.5131-7.5378 3.025-14.446 5.5-15.351 5.5-3.8268 0-27.964 13.547-40.925 22.97-11.922 8.6673-36.401 32.686-41.815 41.03-0.8922 1.375-3.4065 4.9552-5.5874 7.9559-41.755 57.452-45.797 140.97-10.045 207.54 12.396 23.082 38.441 51.404 60.867 66.186 3.8942 2.5669 8.2439 5.4464 9.666 6.3989 16.742 11.213 54.395 23.903 80.914 27.27 11.142 1.4146 44.821-0.1918 58.338-2.7827zm-56.838-14.183c-1.1-0.2682-8.9055-1.8286-17.346-3.4675-8.44-1.6388-19.24-4.4853-24-6.3254-4.76-1.8402-10.454-3.914-12.654-4.6085-5.8062-1.8328-17.719-9.1752-36.5-22.496-30.611-21.712-55.129-59.219-65.365-99.992-5.3036-21.127-6.2557-57.145-1.9928-75.391 7.0972-30.378 17.651-54.786 31.687-73.28 3.394-4.472 7.0709-9.3289 8.1709-10.793 81.212-108.11 266.89-75.08 309.01 54.964 1.5141 4.675 3.6137 11.144 4.6657 14.376 1.052 3.2319 2.3621 9.5319 2.9114 14s1.4302 10.296 1.9577 12.95c1.2574 6.3279 1.2325 31.528-0.038 38.614-0.5483 3.0581-1.7064 10.285-2.5734 16.06-5.7841 38.526-39.11 92.385-65.626 106.06-1.267 0.65342-6.8036 4.2193-12.304 7.9241-9.5499 6.4329-23.912 14.182-38.97 21.026-17.07 7.7586-66.052 14.033-81.03 10.379zm30.76-46.292c6.3799-1.05 6.2284-0.40839 3.1281-13.245-3.2402-13.416-3.5058-13.852-8.445-13.852-8.6728 0-8.9427 0.42034-8.9427 13.926 0 14.91 0.5592 15.427 14.26 13.172zm-19.5-11.11c0.4489-16.167 0.4399-16.18-12.473-17.471l-7.1814-0.71802-1.9535 3.8446c-2.1717 4.2743-5.1837 15.226-5.1837 18.848 0 3.4581 10.919 6.5078 22 6.1444l4.5-0.14758 0.2916-10.5zm47.874 6.0263c10.045-3.5304 10.255-5.1265 2.5702-19.526-4.4275-8.2965-5.1306-8.5312-15.327-5.1168-9.6572 3.2339-10.133 4.4002-6.41 15.705 4.5282 13.749 4.9373 13.94 19.167 8.9383zm-82.5-3.78c10.529-11.833 7.0747-29.383-5.7471-29.202-10.443 0.14716-13.425 25.027-3.4176 28.516 8.0361 2.8018 7.3295 2.7489 9.1647 0.68633zm109.99-7.4026c6.2-3.98-3.3-23.85-11.4-23.85-10.631 0-12.555 8.643-5.179 23.267 3.8985 7.7293 5.3933 7.7816 16.615 0.58065zm-130.55-11.354c1.7924-4.9461 4.031-10.483 4.9747-12.304 3.6176-6.9805-11.904-15.891-18.165-10.428-12.012 10.482-13.14 18.114-3.7012 25.036 12.739 9.3422 12.667 9.3521 16.891-2.3044zm150.77-2.2414c6.6524-5.9343 6.7803-5.52-5.8684-19.013-5.6857-6.0652-6.8497-6.2813-12.354-2.2939-7.0394 5.0993-6.8425 6.3846 2.8472 18.578 7.0139 8.8262 8.2869 9.0521 15.375 2.7288zm-177.1-12.51c1.3778-1.7875 5.0245-5.95 8.1036-9.25 6.7018-7.1825 6.6679-6.5328 0.7312-14-6.8992-8.6779-22.645-4.4223-27.219 7.3565-3.0316 7.8069 13.561 22.151 18.384 15.894zm190.84-0.0345c3.0285-2.3067 11.897-14.823 11.897-16.79 0-1.9758-2.1567-3.2897-7.1349-4.3466-1.4492-0.30766-4.8754-2.0672-7.6139-3.91-8.1482-5.4834-8.5331-5.4103-14.804 2.8117l-2.6995 3.5392 2.654 3.74c12.15 17.122 13.433 18.206 17.702 14.956zm-86.191-11.771c76.187-12.362 90.483-117.34 20.777-152.57-35.014-17.698-85.461-2.6078-101.26 30.29-1.5419 3.211-4.0941 7.7551-5.6716 10.098-1.608 2.3884-3.3278 6.7818-3.9144 10-0.5755 3.157-1.6758 8.2446-2.4451 11.306-12.544 49.913 38.139 99.701 92.513 90.879zm-121.44-12.03c2.5144-1.6969 5.9803-4.8383 7.7021-6.9808s3.9622-4.1595 4.9786-4.4821c6.0115-1.908-0.1349-9.9813-6.8341-8.9767-15.154 2.2725-21.284 7.8825-17.78 16.27 3.3228 7.9526 5.3024 8.6442 11.933 4.1692zm228.08-6.0062c3.6543-7.2113 3.5075-7.466-5.9689-10.356-15.568-4.7486-20.578-4.1479-20.578 2.4676 0 3.7067 9.1691 10.445 16.994 12.489 5.8647 1.532 6.6317 1.1626 9.5521-4.6004zm-236.5-14.45c4.6418-1.635 16.876-7.4005 16.876-7.953 0-1.259-4.5582-12.265-5.5202-13.328-0.984-1.088-2.2406-0.89522-7.0879 1.0871-3.2406 1.3252-8.0302 3.1953-10.644 4.1557-6.7935 2.4966-7.9719 4.5382-6.0147 10.421 2.6113 7.8492 4.1168 8.5317 12.391 5.6173zm244.07-3.5816c3.2168-6.2228 3.5625-13.444 0.6804-14.214-5.8344-1.5583-23.388-1.9514-24.539-0.54951-4.7316 5.7651-3.6081 11.618 2.6669 13.892 1.925 0.69761 5.75 2.1026 8.5 3.1221 7.3109 2.7105 10.411 2.1608 12.691-2.2506zm-249.2-19.82c15.226-3.8773 17.254-6.0003 13.974-14.629l-1.0263-2.6994-11.6 0.71437c-15.38 0.94713-14.714 0.56545-13.898 7.9543 1.3282 12.031 0.7842 11.656 12.551 8.6594zm254.09-2.2271c0.6381-1.1922 1.2164-4.4547 1.2852-7.25l0.1-5.08-12.732-0.21855c-14.376-0.24678-15.19 0.16983-14.576 7.4576l0.3078 3.6543 6.877 1.2637c3.7824 0.69505 7.1199 1.5066 7.4167 1.8033 1.6724 1.6724 10.186 0.44535 11.296-1.6281zm-0.6548-19.808c9.2964-3.5345 2.4638-15.013-8.2406-13.844-14.98 1.6359-23.458 9.9728-14 13.767 3.0968 1.2424 19.03 1.2971 22.24 0.0764zm-243.81-1.6262c7.4534-2.8465 7.5707-9.2515 0.2375-12.967-5.5227-2.7985-7.2218-2.7846-17.614 0.14488l-5.25 1.4799v5.8054c0 7.677 10.375 10.216 22.626 5.5373zm234.64-18.308c9.4021-2.0435 11.158-6.1569 6.7626-15.841-2.4593-5.418-3.5781-5.4096-15.401 0.11524-11.677 5.4566-11.758 5.6222-8.0623 16.504 0.5101 1.5019 7.764 1.1637 16.701-0.7786zm-233.28-2.5442c8.9-0.22 10.5-12.54 1.6-12.54-1.2628 0-3.9627-0.69636-5.9997-1.5475-2.2816-0.95331-5.8794-1.4333-9.3702-1.25l-5.6666 0.29747-1.9672 6.856c-2.6329 9.176-1.5753 10.189 9.4634 9.0678 4.125-0.4191 9.5195-0.81394 11.988-0.87743zm225.1-20.28c11.835-4.9272 12.071-5.2167 8.9933-11.044-2.9138-5.5172-3.7087-5.5921-13.244-1.2476-8.2599 3.7635-12.249 7.8986-11.294 11.706 1.564 6.2316 1.9471 6.2461 15.544 0.58527zm-213.99 0.72521c4.6706-4.6706 1.2906-12.009-6.8245-14.817-3.1271-1.0819-7.2844-2.6574-9.2384-3.5011-4.5244-1.9536-5.1706-1.486-8.3245 6.0232-3.1398 7.4756-2.7453 8.9028 2.6945 9.7468 2.3005 0.35689 6.6577 1.5138 9.6827 2.5708 7.0525 2.4644 9.5275 2.4597 12.01-0.023zm197.52-13.355c1.0849-0.75092 3.0975-1.6934 4.4725-2.0944 4.418-1.2885 13-6.9126 13-8.5194 0-2.9031-4.9461-9.0213-7.2861-9.0127-4.0995 0.0151-18.684 9.6647-18.702 12.374-0.036 5.4618 4.9577 9.7151 8.5151 7.2527zm-184.85-8.4488c5.2896-7.7296 5.2884-7.552 0.071-10.835-2.3375-1.4709-6.304-4.4015-8.8144-6.5126-6.5927-5.5439-10.031-4.3735-17.028 5.7961-4.153 6.0362-3.4819 7.0808 8.3415 12.982 12.553 6.266 12.139 6.3 17.43-1.4309zm177.86-9.9364c13.987-8.6827 14.51-9.6246 9.6281-17.323-8.0629-12.714-11.369-12.324-23.918 2.8171-5.3039 6.3996-5.3143 6.2512 0.8951 12.817 6.118 6.4689 5.7671 6.4247 13.395 1.6896zm-163.6-6.5c6.7578-5.3768 6.0859-9.1534-3.5205-19.787-4.5546-5.0414-4.6428-5.0296-12.098 1.6209-7.2858 6.4994-7.5394 7.777-2.5 12.595 9.3359 8.9254 12.63 9.9381 18.118 5.5708zm142.33-9.386c2.0921-1.4498 3.8038-3.0349 3.8038-3.5223 0-0.48749 1.7361-2.7888 3.8581-5.114 6.9711-7.639 7.115-8.5526 2.0377-12.936-9.3869-8.1032-15.012-9.093-16.376-2.8816-0.3349 1.5248-1.9389 6.0403-3.5643 10.035-3.846 9.4507-3.7602 10.459 1.1946 14.049 5.004 3.6248 4.3864 3.5996 9.0462 0.37027zm-124.04-4.114c6.9308-4.4719 7.13-4.8526 4.8623-9.2939-0.9706-1.9009-3.3901-6.7186-5.3767-10.706-4.2619-8.5546-5.2477-8.8403-13.122-3.8031-8.4638 5.4142-8.5614 6.1568-2.0999 15.969 8.7476 13.283 7.9259 12.874 15.736 7.8346zm109.24-15.947c5.4518-11.908 2.7014-18.229-7.9561-18.287-9.6472-0.0518-12.955 25.565-3.6616 28.356 5.892 1.7695 6.3983 1.3307 11.618-10.069zm-88.89 5.8005 5-1.8948 0.2919-5.8808c0.6556-13.208-6.5916-21.191-15.686-17.278-8.0921 3.4811-8.2709 5.8229-1.4725 19.282 3.8473 7.6164 5.2279 8.2879 11.867 5.7722zm63.835-4.3536c3.2018-5.2179 7.1182-21.726 5.5308-23.313-10.051-10.051-20.342 0.43205-18.715 19.063 0.5158 5.9062 10.243 9.042 13.184 4.25zm-41.983-1.2447c1.9225-1.9225 1.1379-14.936-1.2965-21.505l-1.6677-4.5-5.3938 0.23573c-7.6944 0.33627-8.9969 1.9084-6.6569 8.0347 0.9936 2.6012 2.3595 7.4398 3.0354 10.752 1.7581 8.6171 7.1829 11.779 11.98 6.9825zm22.423-1.7553c0.3988-1.2375 0.7252-7.425 0.7252-13.75v-11.5l-8-0.2558c-10.88-0.34791-11.145-0.10625-9.1982 8.3978 0.8636 3.7719 1.8246 9.0626 2.1355 11.757 0.8934 7.7423 12.206 11.964 14.338 5.3509zm291.75 139.21c1.6376-2.6498-0.6355-8.9633-3.2272-8.9633-2.1662 0-2.4269 0.32264-1.8186 2.25 0.3905 1.2375 0.9441 3.4875 1.2301 5 0.5187 2.7433 2.6012 3.6784 3.8157 1.7133zm-12.104-7.5703c3.2217-1.2363-1.9259-9.393-5.9278-9.393-2.2514 0-1.2162 4.5636 1.758 7.75 2.3893 2.5597 2.0892 2.4414 4.1698 1.643zm-18.584-21.333c0.2271-1.5513-0.093-2.1421-1-1.8433-0.7337 0.24184-1.4845 1.4671-1.6682 2.7228-0.2271 1.5513 0.093 2.1421 1 1.8433 0.7337-0.24184 1.4845-1.4671 1.6682-2.7228zm24.232-3.0955c2.7477-1.4705 2.521-4.1872-0.3157-3.7844-1.446 0.20536-2.3642 1.1236-2.5696 2.5696-0.3579 2.5202 0.092 2.7097 2.8853 1.2148zm-19.099-9.4422c0.1-1.94-3.6-5.52-5.6-5.52-2.1458 0-4.8143 4.9855-3.9183 7.3204 0.6238 1.6256 9.7303-0.0667 9.674-1.7978zm2458.7 2.05c24.397-3.4467 14.193-7.4291-20.507-8.0034-21.895-0.3624-27.187-0.73105-30.493-2.1239-3.2478-1.3685-5.3163-1.5278-11-0.84753-3.85 0.46081-17.56 0.85286-30.468 0.87121l-23.468 0.0334-0.9939 2.8028c-2.4419 6.886-0.6124 7.1601 50.397 7.5502 17.857 0.13655 32.568 0.34956 32.692 0.47335 0.5298 0.5298 29.286-0.11261 33.84-0.75597zm34.25-14.392c9.2731-6.7717 6.5512-11.085-6.1603-9.7616-16.941 1.7636-18.489 1.7755-24.806 0.19128-4.7481-1.1908-8.7576-1.4512-15.355-0.99713-6.5519 0.45089-10.526 0.19796-14.929-0.95009-4.1299-1.0769-8.3376-1.3946-13.5-1.0192-4.125 0.29996-13.575-0.00076-21-0.66827-39.516-3.5525-54-1.6216-54 7.1988 0 4.6014-0.0007 4.6012 16.5 5.257 6.6 0.26232 14.186 0.77224 16.857 1.1332 3.2335 0.43686 7.2122 0.0838 11.903-1.0563 7.6826-1.8672 12.946-1.5122 18.095 1.2206 3.3621 1.7845 2.6642 1.7434 45.145 2.6614 13.75 0.29715 26.35 0.96317 28 1.4801 4.0931 1.2822 5.9929 0.60984 13.25-4.6897zm-2472.3 3.969c0.2898-0.46897-0.1061-1.7065-0.8799-2.75-1.592-2.1469-5.4881 0.24192-4.0884 2.5067 0.8014 1.2967 4.2139 1.4638 4.9683 0.24328zm-13.5-4.12c0-2.1562-0.3893-2.8192-1.4227-2.4227-2.9757 1.1419-2.9901 5.3913-0.018 5.3913 0.9311 0 1.441-1.0506 1.441-2.9686zm2314.5-4.3035c5.785-5.6183 4.32-8.2272-3.1111-5.5401-2.7851 1.0071-3.5684 0.93109-5.1497-0.5-2.2915-2.0738-3.2075-2.1374-3.2075-0.22296 0 0.80565 0.9 1.9465 2 2.5352 2.0876 1.1173 2.928 7 1 7-0.55 0-1 0.41859-1 0.93019 0 1.841 5.9774-0.81196 9.4683-4.2023zm-2326-1.2993c2.1923-2.1923 1.96-4.4286-0.46-4.4286-2.2414 0-3.5001 2.1727-2.607 4.5 0.7239 1.8864 1.1184 1.8772 3.067-0.0714zm2489-6.75c3.85-0.0124 10.93 0.29498 15.734 0.68317l8.7339 0.7058 4.5576-4.201c7.419-6.8386 6.8135-7.2737-13.602-9.7721-4.167-0.50997-9.3579-1.4069-11.535-1.9932-2.7603-0.74326-6.5216-0.75672-12.424-0.0445-13.975 1.6865-34.977 1.164-47.965-1.1935-8.8951-1.6146-13.984-1.9741-22.464-1.5871-9.0843 0.41453-11.999 0.16657-17-1.4461-22.604-7.2895-40.989-5.5887-43.339 4.0094-2.0309 8.2943-1.8572 8.376 17.25 8.1182 14.66-0.19779 34.093 1.1722 39.054 2.7532 1.1 0.35057 6.7806 0.53122 12.624 0.40143 7.18-0.15949 12.618 0.28076 16.776 1.3582 4.4715 1.1587 8.5352 1.4361 14.876 1.0154 6.3402-0.42059 10.091-0.1647 13.724 0.93636 3.4728 1.0523 6.9854 1.3263 11.5 0.89706 3.575-0.33992 9.65-0.62822 13.5-0.64066zm-2479.7-9.24c3.6-2.51 2.8-4.44-1.8-4.44-4.4627 0-4.3705-0.10469-3.0248 3.4349 1.1351 2.9853 1.785 3.1218 4.8023 1.0084zm2309.4-4.34c2.0834-1.6726 2.2718-4.417 0.4094-5.9627-1.0435-0.86606-2.06-0.21729-4.5876 2.928-5.2821 6.5728-2.629 8.4999 4.1782 3.0347zm-3459.7-2.1492c0.35834-0.5798 1.3002-7.2173 2.093-14.75 0.79282-7.5327 1.9048-17.521 2.4711-22.196 3.3126-27.348 3.0218-28.735-6.5976-31.456-29.837-8.4415-81.462-34.615-103.5-52.474-1.375-1.1142-2.95-2.0361-3.5-2.0486-1.3318-0.0303-9.5-9.565-9.5-11.089 0-4.1583 15.799-20.936 29-30.795 4.125-3.0809 7.95-6.0988 8.5-6.7064 0.55-0.60756 4.375-3.8299 8.5-7.1607s8.85-7.4858 10.5-9.2332 4.4625-4.0823 6.25-5.1886 3.25-2.6013 3.25-3.3222 2.8125-3.889 6.25-7.0403c21.598-19.8 24.966-27.772 10.074-23.846-2.6532 0.6995-6.5952 1.2917-8.76 1.316-16.105 0.18058-26.323 6.2805-47.564 28.395-2.475 2.5768-7.6302 6.8145-11.456 9.4171s-13.276 10.927-21 18.499c-7.7242 7.5719-15.169 14.538-16.544 15.479-1.375 0.94175-6.4681 5.209-11.318 9.4829-9.4422 8.3207-9.8128 8.5229-11.622 6.3424-1.9294-2.3248 0.9774-6.5304 10.513-15.21 10.334-9.407 35.838-33.864 46.371-44.469 4.1559-4.1839 9.5812-8.984 12.056-10.667 2.475-1.683 7.65-6.2811 11.5-10.218 13.633-13.942 16.855-15.314 43.5-18.532 24.918-3.0098 32-5.1141 32-9.508 0-3.0279-2.2654-3.7702-13-4.2592-5.775-0.26311-15.45-0.99603-21.5-1.6287-19.896-2.0806-28.38 0.44961-41.275 12.31-4.5515 4.186-8.6882 7.6108-9.1928 7.6108-1.3658 0-25.763 18.533-31.532 23.953-2.75 2.5836-6.35 5.5339-8 6.5562-1.65 1.0222-5.25 3.946-8 6.4972s-6.575 5.7097-8.5 7.0188c-13.715 9.3271-34.938 29.804-36.304 35.029-0.25283 0.96685 0.4321 3.7127 1.5221 6.1019s3.5544 8.3748 5.4765 13.301c5.5062 14.113 13.812 23.862 28.805 33.813 3.85 2.555 11.725 8.249 17.5 12.653 5.775 4.4043 15.675 10.986 22 14.625 23.52 13.534 41.818 24.859 51.411 31.819 3.8991 2.8292 9.6914 6.8938 12.872 9.0324 3.1802 2.1386 6.7802 5.0672 8 6.5081 1.2197 1.4409 3.7927 3.7243 5.7177 5.0743s6.3054 4.8201 9.7341 7.7113c3.4288 2.8912 8.3788 6.3444 11 7.6736s5.6231 3.3654 6.6709 4.5249c2.0738 2.2949 4.1037 2.712 5.1285 1.0539zm3675.3-1.1174c14.354-10.874 15.208-17.155 2.0979-15.416-2.7197 0.36079-9.6482 0.17757-15.397-0.40716-9.3355-0.94961-11.044-0.8633-15.995 0.80829-5.771 1.9483-7.1878 1.8862-19.955-0.87402-4.5899-0.9923-6.8666-1.0161-10.264-0.10734-5.6979 1.5239-8.8863 1.4662-20.338-0.36816-12.81-2.052-34.386-3.6862-52-3.9385-9.5112-0.13623-16.736-0.77337-21-1.8518-15.361-3.8854-28.5-0.95419-28.5 6.3581v3.4682l7 0.63164c15.789 1.4247 27.109 3.1133 32.852 4.9006 4.3597 1.3569 7.6446 1.7285 11.614 1.3138 3.0441-0.31802 8.9097-0.0457 13.035 0.60528 21.821 3.4433 26.79 3.9725 38.618 4.112 7.0852 0.0836 16.459-0.26384 20.831-0.772 5.6894-0.66132 9.9528-0.56474 15 0.33977 3.8783 0.69504 9.3015 1.319 12.052 1.3866 2.75 0.0676 5.9 0.53375 7 1.0359 2.8032 1.2797 21.327 0.30772 23.351-1.2252zm-2532.4-6.29c2.108-3.2173 2.0412-4.5352-0.23-4.5352-2.9636 0-5.7167 3.6183-4.1706 5.4812 1.7323 2.0873 2.5247 1.917 4.4006-0.94606zm2310.5-1.8962c1.9608-2.3626-2.6812-11.501-5.0869-10.014-1.0773 0.66584-0.9952 3.1238 0.2549 7.625 1.0755 3.8729 2.8659 4.7581 4.832 2.389zm-2319.5-2.44c0.7906-1.2793-1.0434-3.5252-2.2632-2.7714-1.6054 0.9922-1.3677 3.5691 0.3292 3.5691 0.7925 0 1.6628-0.35899 1.934-0.79775zm22.31-1.2884 2.8151-1.0861-3.4622-2.9139c-4.5823-3.8565-12.039-3.515-8.1507 0.37326 0.6121 0.61208 1.1129 1.9229 1.1129 2.9129 0 2.0997 3.2988 2.4061 7.6849 0.71387zm-1198.7-5.16c-0.0338-1.9009-3.0331-5.0706-7.4778-7.9026-2.2-1.4018-8.05-5.5866-13-9.2996-9.1085-6.8324-20.93-13.451-22.042-12.339-2.3502 2.3502 8.732 13.654 17.042 17.382 7.3948 3.3178 9.5 5.0777 9.5 7.9421 0 3.7477 2.7415 4.9377 12.25 5.3176 2.4233 0.0968 3.7421-0.29241 3.7278-1.1002zm3685.3-2.0833c2.7816-0.96879 10.135-1.2301 28.658-1.0184 27.703 0.31659 28.036 0.2448 31.693-6.8268 2.6227-5.0717 1.6115-5.7068-9.2914-5.8356-14.556-0.17195-14.258-0.17624-21.801 0.31388-3.85 0.25017-16.9 0.7577-29 1.1278-12.1 0.37015-23.693 1.1743-25.763 1.787-2.839 0.8405-6.3989 0.78909-14.5-0.2094-16.909-2.0841-23.346-2.2949-28.965-0.94877-4.497 1.0773-6.1207 1.0108-11.614-0.47627-5.324-1.4412-11.524-1.7579-37.272-1.9044l-30.9-0.18v2.488 2.488l14.5 0.0794c9.3471 0.0512 15.566 0.53254 17.5 1.3545 1.8515 0.78698 8.9338 1.4072 18.5 1.62 22.167 0.49329 39.82 2.008 44.826 3.8463 4.5724 1.6791 14.869 2.1272 26.674 1.1609 4.67-0.38227 8.6643-0.0975 12 0.85552 6.4016 1.829 10.081 1.8974 14.742 0.27404zm-2508.5-4c0.2898-3.43 0.1246-3.6736-2.5-3.6864-1.5457-0.008-3.8588-0.29438-5.1401-0.63747-4.1146-1.1018-2.5613 4.7109 1.8297 6.8469 4.597 2.2362 5.4391 1.8706 5.8104-2.5231zm-1204.3 1.3764c0.32323-0.52301-1.8552-2.5136-4.8409-4.4236-2.9858-1.91-7.6225-6.1089-10.304-9.331-7.6319-9.1707-15.369-17.074-20.898-21.345-2.7902-2.1557-5.6379-4.9751-6.3284-6.2651-0.69043-1.2901-2.6826-3.1646-4.427-4.1655-1.7444-1.001-9.4716-6.1852-17.172-11.521-15.908-11.023-18.164-12.351-18.915-11.136-0.88897 1.4384 5.4343 10.204 12.638 17.519 3.7272 3.785 6.7768 7.2135 6.7768 7.619 0 0.40552 2.81 2.4837 6.2444 4.6183 3.4344 2.1345 8.9469 6.142 12.25 8.9056 3.3031 2.7635 8.9306 6.9881 12.506 9.3879 8.3209 5.5856 15.969 11.472 21.849 16.814 4.5193 4.1068 9.2263 5.5791 10.621 3.3223zm-20.538-1.6883c1.1-1.02-7.12-8.28-21.93-19.36-2.5724-1.925-5.9903-4.7375-7.5952-6.25s-3.2554-2.75-3.6677-2.75-3.3419-2.3038-6.5102-5.1196c-3.17-2.82-7.56-6.7-9.76-8.63-5.72-5.02-16.87-17.65-22.28-25.25-2.5496-3.575-6.9995-9.1458-9.8886-12.379-2.8891-3.2337-7.1354-9.048-9.4361-12.921-2.3007-3.8727-7.9392-11.056-12.53-15.963-4.7933-5.1236-9.3077-11.048-10.604-13.915-2.2292-4.9308-2.3049-4.9862-6.1282-4.4861-7.3518 0.9617-7.0337 2.2922 3.7459 15.664 2.4386 3.025 6.5873 8.65 9.2195 12.5s6.8377 8.8517 9.3457 11.115c4.5318 4.0894 8.7201 11.675 12.636 22.885 0.9947 2.8474 3.3172 6.5068 5.3947 8.5 12.732 12.215 24.146 22.378 28.029 24.956 16.558 10.993 29.498 21.874 33.587 28.244 2.6594 4.1428 14.926 6.2566 18.345 3.1613zm3560.5 1.0322c1.7415-0.66828 2.0452-3.1126 0.6588-5.3026-1.111-1.7551-7.077 0.33653-7.077 2.4812 0 2.3072 3.6159 3.8967 6.4182 2.8214zm-3588.5-4.61c0-0.66841-2.8125-3.8551-6.25-7.0816-5.5502-5.2095-9.4429-8.2503-21.063-16.453-12.798-9.0346-33.223-29.773-34.682-35.213-1.9685-7.3399-8.6626-19.657-11.959-22.004-1.664-1.1849-5.6051-5.6145-8.7579-9.8437-3.1528-4.2291-6.1037-7.954-6.5574-8.2774-0.45376-0.32342-2.2664-2.6408-4.028-5.1498-14.94-21.28-15.31-21.65-19.7-20.26-2.6441 0.83919-2.5266 3.1195 0.35571 6.9056 1.2956 1.7019 3.3672 5.1194 4.6034 7.5944s4.1908 6.525 6.5658 9c2.8259 2.9449 6.4552 8.9085 10.502 17.257 4.2226 8.7108 7.117 13.421 9.1256 14.852 3.04 2.16 11.85 14.46 11.85 16.55 0 0.64754 0.39034 1.3273 0.86742 1.5107 0.47708 0.18333 2.8396 3.2763 5.25 6.8733s6.2682 8.2376 8.5729 10.312c2.3047 2.0749 7.4562 7.8128 11.448 12.751 3.9917 4.9381 8.856 9.9456 10.81 11.128 1.9537 1.1823 5.026 3.8363 6.8274 5.8978 3.6191 4.1417 4.818 4.4559 17.975 4.7111 5.8954 0.11436 8.25-0.18681 8.25-1.0552zm3575.3-2.8812c0.8-3.0592-0.2238-4.9036-2.722-4.9036-4.4755 0-6.5191 5.4899-2.343 6.2943 4.1749 0.80411 4.5155 0.7106 5.065-1.3907zm-3615.9-0.72c1.0173-1.646-8.6983-14.367-18.613-24.37-4.3913-4.4306-10.198-11.965-14.651-19.01-4.057-6.4187-9.1008-13.056-11.209-14.75-2.9125-2.3405-5.2739-6.0936-9.8398-15.639-4.1026-8.5764-7.5794-14.279-10.964-17.982-4.8556-5.3128-8.5721-11.19-14.327-22.656-1.5802-3.1484-3.8532-6.4109-5.0512-7.25-4.4487-3.116-13.319-0.98007-11.132 2.6806 2.3996 4.017 9.4044 12.956 13.552 17.294 4.718 4.9346 9.1057 12.769 13.039 23.28 1.1083 2.9622 4.316 8.3859 7.1283 12.053 2.8123 3.6669 6.4785 9.1568 8.1471 12.2 13.145 23.973 49.813 60.796 53.921 54.149zm-23.6-4.2985c0.18612-0.97733-4.6041-6.5122-12.117-14-8.1614-8.1347-13.558-14.442-15.729-18.384-1.8177-3.3-4.5115-7.575-5.9862-9.5s-3.4754-5.0512-4.446-6.9472c-0.97057-1.896-4.0319-6.171-6.803-9.5s-5.7943-7.8528-6.7182-10.053c-0.92393-2.2-3.1979-7.6-5.0533-12-2.1194-5.0263-5.0779-9.8586-7.959-13-5.4781-5.9731-14.304-17.927-16.023-21.702-1.8738-4.1152-11.722-7.696-14.24-5.1779-0.69966 0.69966 4.7198 11.911 6.1999 12.826 0.52671 0.32552 1.9055 3.1252 3.064 6.2216 1.1598 3.0999 5.3456 9.8608 9.3147 15.045 3.9646 5.1786 9.2346 13.324 11.711 18.101 5.1947 10.021 7.1545 13.234 13.53 22.186 2.5461 3.575 5.8304 8.377 7.2985 10.671 4.5027 7.0361 33.226 35.576 36.652 36.418 4.3608 1.0716 6.952 0.64393 7.3042-1.2057zm3823.2-0.79c14.575-0.58921 29.425-1.5755 33-2.1918 4.8831-0.84177 7.578-0.82929 10.834 0.0502 2.473 0.66806 5.6931 0.85143 7.5 0.4271 1.7415-0.40898 5.9788-0.6322 9.4163-0.49604 4.8331 0.19142 6.25-0.0726 6.25-1.1647 0-2.2767-16.254-2.862-91-3.2767-73.475-0.40772-119.73-0.59816-121.75-0.50122-0.6875 0.0331-1.25 0.6898-1.25 1.4594 0 1.5198 6.5524 1.9945 43.631 3.1611 10.522 0.33105 21.516 1.1315 24.43 1.7787 3.6325 0.80664 7.3656 0.89381 11.869 0.27712 4.8117-0.65894 9.2451-0.4886 16.57 0.63666 5.5 0.84497 13.15 1.3957 17 1.2239 3.85-0.17184 18.925-0.79452 33.5-1.3837zm-2509.2-1.29c1.9226-1.9226 1.395-4.4422-1.3-6.208-1.375-0.90094-2.5-2.3027-2.5-3.115 0-0.81232-0.9-1.477-2-1.477-2.5742 0-2.5742 2.709 0 6 1.0755 1.375 1.9655 3.2875 1.9778 4.25 0.026 2.0138 2.0649 2.3073 3.8222 0.55zm-1340-2.59c0.23295-0.70912-3.9088-5.4146-9.204-10.457-6.7016-6.3813-11.479-12.068-15.721-18.711-3.3512-5.2488-7.78-12.018-9.8418-15.043s-5.9162-9.775-8.5654-15-7.7326-13.325-11.297-18c-3.564-4.675-7.5636-10.975-8.8879-14-9.3236-21.296-12.866-26.004-19.551-25.985-9.4574 0.0278-9.6984 3.0012-1.0119 12.483 1.9898 2.172 4.6917 6.3772 6.0042 9.3449 1.3124 2.9676 3.5055 6.8631 4.8734 8.6566 1.368 1.7935 3.5291 5.9022 4.8025 9.1306 2.723 6.9031 11.465 20.34 18.878 29.017 2.8885 3.3809 6.8009 9.2309 8.6941 13 2.2756 4.5302 6.0039 9.4588 11 14.541 4.1568 4.2285 10.454 10.754 13.994 14.5 3.5398 3.7465 7.3648 7.114 8.5 7.4833 3.072 0.99938 6.8521 0.50414 7.3334-0.96078zm1370.2-0.51971c-0.031-2.4348-1.8348-4.2408-3.0357-3.04-0.8457 0.84571-0.8435 1.6775 0.01 3.2696 1.147 2.1432 3.0558 1.9984 3.0272-0.22967zm2296.8-3.4189c1.018-3.0518 0.062-5.4819-1.2937-3.2884-1.1469 1.8557-4.3173 1.052-6.2349-1.5805l-1.8917-2.5968-3.0861 2.5968c-3.6332 3.0572-4.0626 3.1193-6.4748 0.93626-2.4128-2.1836-3.4491-1.01-1.9716 2.2328 0.9815 2.1542 1.6381 2.4792 3.9731 1.9663 2.0699-0.45461 3.2732-0.0886 4.627 1.4073 1.2433 1.3739 2.5625 1.8378 4.1168 1.4477 1.258-0.31573 3.1073-0.11148 4.1097 0.45389 2.1444 1.2096 2.6868 0.73959 4.1262-3.5754zm-3692.8-0.62c0-2.0721-5.0683-8.6072-12.228-15.767-4.2494-4.2494-7.5586-8.7456-9.6279-13.081-1.7342-3.6336-5.5212-9.6879-8.4156-13.454-9.8-12.75-18.73-27.03-18.73-29.94 0-0.6066-1.8623-3.9843-4.1385-7.5059-2.2762-3.5217-4.6047-7.7404-5.1745-9.375-0.56983-1.6346-2.4508-4.8254-4.1799-7.0907s-4.1992-6.7788-5.489-10.03c-3.6259-9.1399-2.9678-8.8704-18.268-7.4795-1.5576 0.14159-0.65036 3.3547 2.086 7.388 1.5598 2.2991 3.5226 5.5302 4.3617 7.1802 12.871 25.307 16.275 30.735 23.808 37.962 5.2141 5.0024 12.082 14.467 17.353 23.915 9.7378 17.455 18.601 27.743 29.869 34.672 6.7242 4.1347 8.7729 4.7422 8.7729 2.6013zm-23-3.4275c0-1.283-3.0381-5.447-7.4583-10.223-4.0813-4.4093-10.374-14.084-12.812-19.699-2.3931-5.5107-12.972-20.353-16.908-23.722-6.2482-5.3482-15.869-20.599-23.706-37.578-0.88832-1.9246-3.6677-7.5496-6.1763-12.5l-4.5612-9.0007-5.7243-0.80183c-14.719-2.0618-16.931 0.87925-7.883 10.485 8.8067 9.3498 13.661 16.09 19.674 27.317 6.8182 12.732 10.639 18.27 16.557 24 2.8402 2.75 6.2503 7.1193 7.5779 9.7095s5.0346 7.5402 8.2376 11c3.2031 3.4598 7.4527 8.9905 9.4436 12.291 6.94 11.5 23.74 24.75 23.74 18.72zm1403.9-3.8976c-1.4951-1.8015-3.3728-0.11738-2.4756 2.2205 0.5259 1.3705 0.9209 1.4505 2.1451 0.43454 1.1646-0.96655 1.2386-1.5609 0.3305-2.655zm2588.9 1.2838c17.355-6.2228 46.48-42.948 36.489-46.01-3.2443-0.99452-160.52-3.0477-235.75-3.0776l-52-0.0207 0.1323 3c0.3207 7.2745 2.3061 23.263 3.2286 26 0.5561 1.65 1.5323 6.2727 2.1693 10.273 1.599 10.041 1.8771 10.227 15.291 10.229 13.287 0.002 115.1 1.2264 115.35 1.387 1.7323 1.1538 111.65-0.54619 115.09-1.78zm-4016.1-2.17c0.19666-0.59074-0.84604-2.8407-2.3171-5s-3.8024-5.9509-5.1808-8.4259-4.2158-6.4531-6.3054-8.8401c-2.0896-2.3871-5.2003-6.8227-6.9127-9.8569s-6.5805-9.1974-10.818-13.696c-6.0355-6.4075-8.9771-10.663-13.579-19.643-3.231-6.3051-8.1705-14.774-10.977-18.819-8.5706-12.355-11.68-17.142-13.952-21.483-1.9482-3.7217-2.6525-4.2254-6.6585-4.7616-17.259-2.3102-17.516 2.9163-0.94472 19.201 4.7009 4.6194 9.3438 10.199 10.318 12.399 3.6027 8.1389 4.2401 9.1022 9.2697 14.01 2.8239 2.7554 6.5846 7.4804 8.3571 10.5 3.3727 5.7455 10.908 16.336 17.068 23.99 1.9921 2.475 4.8535 6.6646 6.3586 9.3102 6.8528 12.045 24.557 26.274 26.274 21.116zm3739.3-2.9132c1.5543-1.8728 0.5746-4.6664-1.3742-3.9186-1.7076 0.65525-2.8678 3.1882-2.0594 4.4961 0.8168 1.3216 2.0263 1.1182 3.4336-0.57751zm-24-2.4c0-0.48327 1.367-1.4449 3.0377-2.1369 3.5805-1.4831 3.42-2.9985-0.4544-4.29-3.8597-1.2866-7.3816 1.9454-5.6485 5.1837 1.1347 2.1202 3.0652 2.9031 3.0652 1.2432zm-2302.6-0.99714c0.8962-1.4502-2.1091-3.3113-5.6095-3.4737-3.6059-0.16737-5.4232 2.875-2.1209 3.5506 3.95 0.80801 7.2035 0.77567 7.7304-0.0768zm-1437.9-1.18c0.77941-1.2611-10.775-18.915-17.969-27.456-2.788-3.3097-7.0256-9.2596-9.4169-13.222s-5.9913-8.6993-8-10.526c-5.3035-4.8242-8.8197-9.8064-12.134-17.193-1.9664-4.3828-4.9546-8.5681-9.1238-12.779-3.415-3.44-8.304-9.86-10.869-14.26-5.492-9.42-6.642-10.1-18.531-10.94-13.856-0.97493-14.492 1.122-3.4018 11.227 3.1936 2.91 7.437 7.9748 9.4298 11.255 1.9928 3.2804 4.4454 6.4044 5.4502 6.9422 1.0048 0.53778 2.8425 3.1229 4.0837 5.7447 1.5337 3.2397 6.9313 9.4124 16.847 19.267 16.541 16.438 26.982 27.674 32.091 34.533 9.9909 13.415 19.337 20.967 21.538 17.405zm1418.4-5.2472c-0.02-4.1704-1.3286-6.1567-3.5057-5.3213-1.3316 0.511-1.5803 1.374-1.095 3.8004 1.2561 6.2804 4.6289 7.3953 4.6007 1.5209zm42.801-2.2384c-1.8611-1.8611-5.514 0.10087-4.6235 2.4832l0.9106 2.4357 2.1579-2.158c1.1869-1.1869 1.8866-2.4293 1.555-2.761zm2313-1.3284c-0.41-2.1648-5.7905-2.8527-5.7905-0.74028 0 1.8496 2.8757 3.601 4.7387 2.8861 0.7477-0.28693 1.221-1.2526 1.0518-2.1459zm-3796.3-1.87c-1.2188-5.0832-3.613-8.6381-10.477-15.557-3.7547-3.7846-7.1005-7.7438-7.4352-8.7982-0.33466-1.0544-1.8764-2.5728-3.4261-3.3742-4.67-2.42-24.619-22.77-27.023-27.57-1.223-2.45-4.149-6.47-6.503-8.95-2.3537-2.475-5.9438-6.75-7.9782-9.5-2.0343-2.75-5.9096-7.25-8.6118-10-2.7021-2.75-6.378-6.7031-8.1685-8.7847-5.3571-6.2279-14.642-6.2359-12.076-0.0103 0.6338 1.5372 2.3691 5.72 3.8563 9.295 1.7441 4.1926 4.6138 8.5148 8.0839 12.176 2.959 3.12 5.38 6.21 5.38 6.86 0 1.0663 9.9479 11.153 28.186 28.578 3.522 3.365 7.7876 6.834 9.4791 7.7087 1.6916 0.87475 8.6553 7.1701 15.475 13.99 10.603 10.603 18.043 16.462 21.129 16.639 0.42298 0.0243 0.47233-1.1933 0.10966-2.7058zm3783.6-6.23c0-1.198-4.8279-2.5245-5.7676-1.5848-0.8689 0.8689 1.7487 2.5306 4.0176 2.5504 0.9625 0.008 1.75-0.42612 1.75-0.96564zm-2344.3-4.7373c2.2153-2.7448 2.9474-5.2817 1.5243-5.2817-0.6223 0-11.116 4.0179-12.111 4.6368-0.1877 0.11686-0.029 1.1977 0.3536 2.4019 0.995 3.135 7.1355 2.0807 10.233-1.7569zm-1465.7 0.36c0-2.8585-7.2095-10.716-12.111-13.2-2.7519-1.3945-7.5191-5.2148-10.594-8.4896-3.074-3.27-5.961-5.95-6.415-5.95-1.4691 0-18.822-17.948-21.55-22.289-1.4553-2.3159-4.8165-6.6537-7.4692-9.6395s-5.3372-7.0358-5.9655-9c-1.404-4.38-5.532-10.07-7.312-10.07-2.186 0-6.584-4.02-6.584-6.02 0-3.7008-10.537-7.1603-12.438-4.0837-0.56958 0.92159 4.0482 6.9693 12.956 16.968 2.7596 3.0975 6.3246 7.4319 7.9221 9.6319s6.7646 7.8502 11.482 12.556c4.7179 4.7058 11.63 11.989 15.36 16.186 3.7302 4.1963 10.104 10.13 14.164 13.185 4.0599 3.0555 7.5329 6.0053 7.7178 6.555 1.438 4.28 20.836 17 20.836 13.66zm1502.7-5.1947c0.6539-1.704-3.2181-6.4491-5.2624-6.4491-1.2275 0-0.5562 4.3128 1.0844 6.9674 0.9611 1.5552 3.5033 1.2398 4.178-0.51831zm2270.7-2.7c0.3635-1.7875 0.9138-4.7125 1.2229-6.5 0.616-3.5625 3.15-4.3925 5.3431-1.75 1.8314 2.2067 3 1.8308 3-0.96482 0-5.0046-7.205-6.2544-8.8502-1.5352-1.3984 4.0116-4.4926 4.0008-6.1587-0.0215-1.8993-4.5853-5.9911-5.1466-5.9911-0.82189 0 3.7692 7.5223 14.843 10.083 14.843 0.3797 0 0.9877-1.4625 1.3513-3.25zm30.6-5.78c0-1.1173-0.6944-2.2979-1.5431-2.6235-2.0894-0.80176-2.7719 0.0871-1.9808 2.5796 0.8475 2.6702 3.5239 2.7036 3.5239 0.044zm-2355.4-1.22c-0.3317-1.2375-0.6091-3.2625-0.6166-4.5-0.011-1.7372-0.5907-2.25-2.5451-2.25-3.7736 0-4.173 2.6554-0.9114 6.0597 3.3642 3.5114 4.8988 3.7715 4.0731 0.6903zm2673.1-9.3748c1.154-3.463-35.817-6.9307-57.708-5.4129-7.5786 0.52546-15.681 0.31008-36-0.95694-33.827-2.1093-56.801-2.4985-61.5-1.0417-4.4553 1.3811-8.1733 1.5336-16.5 0.6767-4.125-0.42449-12.195-0.38346-17.933 0.0912-5.7381 0.47463-12.713 0.50003-15.5 0.0564-12.316-1.9603-43.341-2.779-47.654-1.2574-2.2906 0.80818-6.0582 1.4694-8.3724 1.4694-2.3141 0-4.5477 0.3375-4.9634 0.75-0.4158 0.4125-4.8355 0.75-9.8216 0.75-9.4378 0-12.571 1.4791-7.3441 3.4665 1.547 0.58817 34.803 1.2425 83.331 1.6396 44.416 0.36343 80.948 0.82928 81.181 1.0352 1.1728 1.0345 118.43-0.21535 118.78-1.266zm-63.25-11.016c3.9978-1.3622 5.6519-1.447 9.7544-0.5 6.1781 1.4261 20.788 1.5159 20.788 0.12774 0-3.2891-11.38-6.1366-23.5-5.8805-6.6 0.13948-22.125-0.0511-34.5-0.42354-80.381-2.4191-197.41-3.1047-199.01-1.166-5.2605 6.3386 18.052 10.408 34.708 6.0581 6.8308-1.7838 31.245-1.2173 43.667 1.0131 9.5889 1.7217 14.83 1.776 24.81 0.25706 5.7153-0.86988 9.3811-0.88415 14.379-0.056 5.8201 0.96442 7.8444 0.84165 15.294-0.92751 6.6026-1.5681 9.864-1.8545 14.121-1.24 3.0446 0.43951 6.2106 0.70003 7.0356 0.57893 4.7137-0.69192 21.942-0.17381 24.323 0.73147 1.5441 0.58705 8.2906 1.1007 14.992 1.1415 6.7017 0.0408 14.21 0.43445 16.685 0.87484 7.2914 1.2974 11.347 1.1522 16.458-0.58931zm-287.8-12.51c0.6727-1.0886-2.0415-3.8483-3.7849-3.8483-1.2209 0-0.9699 2.439 0.3911 3.8 1.5062 1.5062 2.4841 1.5202 3.3938 0.0483zm-32.434-4.5983c-0.4522-6.0641-1.2168-6.7892-5.0622-4.8007-3.5735 1.8479-3.1803 3.7677 1.5304 7.4732 3.6787 2.8936 3.9324 2.7017 3.5318-2.6724zm330.82-0.23343c9.1-7.23 33-43.01 33-49.45 0-0.63273 0.9115-2.9331 2.0256-5.1119 7.3568-14.387 10.678-36.644 7.008-46.961-1.1739-3.3-2.5589-7.3756-3.0777-9.0568-3.9528-12.81-9.2855-9.6065-7.5453 4.5325 3.187 25.894-4.7661 55.538-21.067 78.524-1.1701 1.65-4.1245 6.15-6.5654 10s-6.7986 9.5754-9.6838 12.723c-2.8852 3.1477-4.9602 6.1852-4.6111 6.75 1.273 2.0597 6.7029 1.0476 10.496-1.9564zm-3907.4-8.93c-1.4-2.69-3.55-4.21-3.55-2.5 0 0.82266 4.4258 6.2077 4.8237 5.8693 0.17805-0.15141-0.396-1.6671-1.2757-3.3682zm3591.9-1.2047c0.7622-4.7664-0.7604-7.6655-3.0346-5.7781-1.673 1.3885-1.7455 3.9656-0.2068 7.3428 1.6348 3.588 2.4829 3.1787 3.2414-1.5647zm-29.9-3.4c0-2.2623-0.4585-2.9863-1.891-2.9863-2.7732 0-4.3317 2.9242-2.643 4.9591 2.1044 2.5356 4.534 1.4784 4.534-1.9728zm8.9286-8.8243c1.1885-1.9069-0.5137-3.6186-3.6266-3.6467-1.4588-0.0131-1.5484 0.41362-0.6363 3.0301 1.1264 3.2313 2.5085 3.4312 4.2629 0.61657zm12.6 0.3c0-2.3758-2.6487-3.7199-4.2248-2.1438-0.7872 0.7872-0.7345 1.5193 0.1896 2.6328 1.8113 2.1825 4.0352 1.913 4.0352-0.489zm-3579.2-7.38c7.0855-7.4658 6.0361-8.1398-14.853-9.5393-8.47-0.56-19.9-1.5-25.4-2.07-23.45-2.4453-30.649-3.1232-42-3.9548-6.6-0.48353-14.25-1.3234-17-1.8664-2.75-0.54297-13.55-1.5073-24-2.1429s-22.825-1.562-27.5-2.0586c-4.675-0.49662-15.7-1.3867-24.5-1.978-8.8-0.59127-20.95-1.9244-27-2.9624-18.636-3.2-29.277-4.15-48.5-4.34l-18.5-0.18-0.3223 3.37c-0.629 6.58 4.6893 10 18.822 12.1 4.125 0.61448 10.425 1.5579 14 2.0966 3.575 0.53862 10.775 1.2181 16 1.51 5.225 0.29187 11.129 0.95773 13.12 1.4797 1.9913 0.52196 6.5201 0.86913 10.064 0.77148 3.544-0.0976 7.0656 0.2068 7.8256 0.67655 0.76007 0.46974 5.9062 1.19 11.436 1.6006 32.311 2.399 38.354 2.9412 43.441 3.8975 3.0874 0.58041 13.038 1.2869 22.113 1.57 9.075 0.28307 19.332 0.96128 22.794 1.5071 3.4619 0.54585 7.8569 0.69932 9.7667 0.34105 1.9098-0.35828 4.7023-0.1912 6.2057 0.37128 1.5033 0.56248 9.4833 1.541 17.733 2.1745 8.25 0.6335 18.15 1.47 22 1.8589 3.85 0.38889 12.175 0.60321 18.5 0.47627l11.5-0.23079 4.25-4.4782zm3544.2 5.16c-0.1291-2.1438-3.1141-8.25-4.0329-8.25-2.8983 0-3.4552 3.3355-0.9942 5.9551 1.9131 2.0364 5.0992 3.4909 5.0271 2.2949zm19-13.36c0-1.6172-1.8463-1.7915-4-0.3777-1.2787 0.83941-1.2921 1.1186-0.091 1.8922 1.7912 1.1534 4.0907 0.30207 4.0907-1.5145zm-26.574-10.726c-0.6522-1.6996-2.5551-2.2046-3.7613-0.99837-0.3679 0.36787 0.087 1.5035 1.0097 2.5236 1.8819 2.0795 3.7397 1.0497 2.7516-1.5253zm-24.618-17.176 0.3077-3.9917-2.698 2.6631c-2.9282 2.8902-2.7333 6.233 0.3296 5.6525 1.2552-0.23788 1.8404-1.4657 2.0607-4.3239zm-3475.8 1.4323c3.7564-0.9356 12.912-9.3272 11.603-10.636-0.41442-0.41442-16.136-1.068-34.938-1.4524-34.335-0.70201-41.94-1.1345-51.184-2.9108-4.1972-0.80655-29.889-2.1032-66-3.3311-16.316-0.55478-45.249-2.8249-53-4.1584-4.4-0.75701-11.825-1.6402-16.5-1.9626-4.675-0.32241-11.463-1.3032-15.085-2.1795-8.4361-2.0413-10.262-1.5098-17.471 5.0862-8.3661 7.6549-6.9751 7.9558 47.055 10.181 7.7 0.31711 16.475 0.99073 19.5 1.4969 3.025 0.5062 18.55 1.6041 34.5 2.4397 28.023 1.4681 49.025 3.0756 51.706 3.9573 0.71167 0.23407 11.419 0.94839 23.794 1.5874 12.375 0.63898 29.025 1.7237 37 2.4105 14.534 1.2516 22.45 1.1075 29.018-0.52852zm-277.32-4.79c4.7779-0.68144 5.8971-1.4262 14.543-9.677 14.547-13.882 21.751-19.914 28.491-23.856 8.1195-4.7487 9.3133-6.5746 9.1896-14.055-0.17131-10.359-2.5081-13.918-6.7247-10.242-0.92158 0.8033-4.8256 2.9953-8.6756 4.8711-10.306 5.0211-18.141 11.567-38.911 32.508-22.17 22.353-22.014 23.889 2.0869 20.451zm3728.2-9.84c1.2-2.15-0.3-5.28-2.6-5.28-1.152 0-1.4177 0.61098-0.9785 2.25 0.3317 1.2375 0.6091 2.8125 0.6166 3.5 0.02 1.8168 1.7572 1.5307 2.8792-0.47418zm-9.9-18.28c0-1.3333-0.6667-2-2-2-2.1885 0-2.7565 2.5281-0.75 3.3377 2.271 0.91638 2.75 0.68338 2.75-1.3377zm-3028.5-8.47c44.55-0.28538 95.85-0.74941 114-1.0312 18.15-0.28176 60.225-0.73483 93.5-1.0068 69.823-0.57074 159.68-1.4302 208-1.9894 18.425-0.21323 62.075-0.63925 97-0.94669 34.925-0.30745 84.65-0.78032 110.5-1.0508 25.85-0.27051 83-0.74429 127-1.0528 121.69-0.85332 155.37-1.2534 156.35-1.8567 1.3043-0.80615 2.0565-10.702 1.0208-13.431l-0.8872-2.3376-247.24 0.33372c-135.98 0.18354-260.07 0.70019-275.74 1.1481-38.05 1.0873-55.875 1.1988-59.5 0.37224-3.6075-0.82255-258.75-0.90583-434-0.14166-120.96 0.52744-126.18 0.62559-130.5 2.4532-2.475 1.0471-6.6375 2.8023-9.25 3.9004-7.4314 3.1237-6.4645 9.6504 2.0834 14.064 8.3935 4.3337-5.199 4.1925 247.67 2.5727zm1112.4-10.098c54.973-0.53024 56.397-0.64874 61.318-5.1018 2.2562-2.0418 1.8701-2.575-4.505-6.2225l-5.2729-3.0168-99.456-0.0479c-54.701-0.0263-110.93 0.0662-124.96 0.20555l-25.5 0.25341-0.2993 6.9105c-0.2091 4.8271 0.092 7.1802 1 7.8053 1.2 0.82637 51.096 0.62802 197.67-0.78578zm1472.9-33.965c4.2393-0.84431 8.6078-1.96 9.7078-2.4794 1.1-0.51934 3.1439-1.3568 4.5421-1.8611 2.552-0.92042 8.7276-8.6881 7.7135-9.7022-0.2978-0.29782-5.8772 0.57263-12.398 1.9343-21.17 4.4204-32.606 3.7673-44.198-2.5241-4.0375-2.1912-7.579-3.7459-7.8701-3.4549-1.1869 1.187 0.9472 7.701 3.0036 9.1678 8.8916 6.3422 13.184 8.3428 19.069 8.8864 7.3397 0.67813 12.031 1.2134 12.431 1.4184 0.1606 0.0824 3.7606-0.54097 8-1.3853zm160.34-2.3549c11.787-2.1242 14.872-3.349 14.85-5.8951-0.037-4.1531-1.4378-4.6573-7.6455-2.7523-10.793 3.3121-43.433 3.2812-55.089-0.0523-6.1864-1.7692-0.5459 6.674 5.8399 8.7417 3.3102 1.0718 26.891 2.7891 29.91 2.1782 0.825-0.16696 6.2858-1.166 12.135-2.2202zm-311.44-4.8269c8.8185-5.4194 6.8825-6.1956-10.376-4.1602-10.447 1.2321-21.913-0.41064-29.292-4.1968-8.8837-4.5585-11.283-2.8238-6.4007 4.6276 4.5124 6.8869 36.692 9.4919 46.069 3.7294zm-2794.6-1.1775c23.813-5.5345 28.559-42.412 6.1421-47.722-6.5865-1.5603-18.358-0.49322-23.077 2.092-6.6309 3.6327-9.7793 8.4225-3.3513 5.0984 8.4794-4.3849 21.61-0.45958 21.674 6.4792 0.0175 1.8959 0.48711 4.347 1.0436 5.447 4.3618 8.622-0.64021 19.456-11.325 24.53-9.3524 4.4409-3.7416 7.0124 8.8932 4.0758zm-8.7106-10.653c4.8849-3.2007 7.6143-13.037 5.4258-19.553-3.1759-9.4566-9.9935-8.8513-22.636 2.0097-9.5287 8.1858 6.5219 24.547 17.211 17.543zm-227.88-9.9005c9.54-10.703 10.149-34.442 0.90677-35.349-7.2486-0.71174-7.8907 0.28923-7.9549 12.401-0.0591 11.146-2.2766 19.304-6.1128 22.488-1.9434 1.6128-1.7349 4.6637 0.3596 5.2636 4.5826 1.3124 8.7417-0.24805 12.801-4.8028zm4005.5 2.37c-1.925-1.6606-5.525-4.7872-8-6.948-12.584-10.986-34.674-19.174-58-21.497-7.975-0.79433-16.075-1.6966-18-2.005-1.925-0.30842-37.925-0.72766-80-0.93165-71.29-0.34562-120.65-0.92765-171.5-2.0222-11.55-0.24861-37.2-0.70099-57-1.0053-19.8-0.3043-47.925-0.98284-62.5-1.5079-14.575-0.52502-59.575-1.2068-100-1.515-72.666-0.55405-101.81-0.92908-150.5-1.937-25.836-0.53476-66.605-1.1732-131.5-2.0593-20.625-0.28162-46.275-0.73456-57-1.0065-24.49-0.62104-61.252-1.2851-112-2.0231-21.725-0.31593-47.6-0.74743-57.5-0.95889-9.9-0.21145-37.125-0.6417-60.5-0.95611-23.375-0.3144-50.15-0.80579-59.5-1.092-20.6-0.63051-20-0.9054-19.18 8.7998 0.9853 11.656-1.1823 10.642 22.87 10.7 11.557 0.0278 21.332 0.24806 21.723 0.48951 0.3907 0.24146 23.632 0.70938 51.648 1.0398 28.016 0.33044 56.113 1.0234 62.438 1.54 6.325 0.51656 19.825 0.94485 30 0.95175 10.175 0.007 29.075 0.21382 42 0.45981s47.35 0.67521 76.5 0.95383 64.925 0.99288 79.5 1.5872c14.575 0.59437 64.3 1.2688 110.5 1.4988 83.653 0.41645 133.6 0.99623 174.5 2.0255 38.517 0.96938 131.83 2.5117 212 3.5041 43.175 0.53445 100.55 1.4135 127.5 1.9535 26.95 0.53997 63.85 1.2225 82 1.5168 53.062 0.86029 78.62 3.9029 105.5 12.559 6.2296 2.0062 7.8091 1.171 4-2.115zm-4029-5.89c7.0826-3.7905 11.128-22.173 6.914-31.421-4.07-8.9327-21.42 2.696-22.617 15.159-1.0258 10.676 8.2303 20.261 15.703 16.262zm2817.6-23.64c0.883-0.88296 1.3907-2.3455 1.1284-3.25-0.2623-0.90455-0.7811-3.7984-1.1529-6.4308-1.3836-9.797 12.799-8.654-133.44-10.753-71.729-1.0297-109.11-1.6271-152.5-2.4376-14.3-0.26709-44.9-0.7231-68-1.0134-23.1-0.29024-54.15-0.74564-69-1.012s-56.475-0.76506-92.5-1.1082c-36.025-0.34316-69.55-0.74263-74.5-0.8877-4.95-0.14508-18.9-0.37172-31-0.50365l-22-0.23988 0.228 3.6887c0.1253 2.0288 0.8966 4.8957 1.7139 6.3709s2.1833 4.1446 3.0355 5.9321c1.3763 2.8869 2.0227 3.2586 5.786 3.3265 2.3301 0.0421 5.0105 0.22527 5.9563 0.40708 0.9459 0.18181 44.596 0.62238 97 0.97905s99.33 1.0508 104.28 1.5426c4.95 0.49175 29.475 1.1473 54.5 1.4569 25.025 0.30952 54.5 0.77544 65.5 1.0354 11 0.25993 43.4 0.72171 72 1.0262 28.6 0.30446 59.2 0.74488 68 0.97872 8.8 0.23383 42.1 0.71891 74 1.078 31.9 0.35905 58.188 0.82536 58.417 1.0363 1.4859 1.3675 31.067 0.25688 32.546-1.2219zm-645.8-9.9525c0.7563-1.971-3.3008-14.899-5.1599-16.442-1.6026-1.33-51.053-2.3558-169-3.5057-29.15-0.28419-58.85-0.73212-66-0.99539-14.776-0.54406-64.97-1.2355-148-2.0387-31.35-0.30328-73.2-0.73423-93-0.95768-19.8-0.22344-65.138-0.70584-100.75-1.072l-64.75-0.66573 0.064 2.8674c0.089 3.954 2.2895 14.054 3.2779 15.043 0.4461 0.44602 12.139 0.87588 25.984 0.95525 30.543 0.17507 100.46 1.2737 117.67 1.849 6.875 0.2298 31.175 0.6714 54 0.98133 22.825 0.30994 47.575 0.78416 55 1.0538 7.425 0.26966 28.35 0.4394 46.5 0.3772 40.148-0.1376 85.349 0.20821 87.799 0.67171 5.3821 1.0182 32.073 1.5105 88.775 1.6374 34.841 0.078 66.065 0.40211 69.386 0.72031 17.765 1.7018 97.512 1.3125 98.2-0.4793zm-652.8-9.5981c0.9706-2.6239-1.3429-12.456-3.4761-14.773-1.4669-1.5935 1.1371-1.5179-85.886-2.4931-29.15-0.32667-62.675-0.82892-74.5-1.1161-11.825-0.2872-37.7-0.71122-57.5-0.94227-77.387-0.90302-115.03-1.8005-116.25-2.7721-0.8361-0.66363-1.25-0.64497-1.25 0.0563 0 0.71215-6.9776 0.9132-21.75 0.62673-11.962-0.23199-48.525-0.65136-81.25-0.93195-32.725-0.28058-76.6-0.74227-97.5-1.026-128.99-1.7509-191.12-2.3794-293.5-2.9691-48.125-0.27716-105.72-0.77073-128-1.0968-22.275-0.32609-71.325-0.66346-109-0.74971l-68.5-0.15-9.2225 3.2217c-32.5 11.353-31.29 14.377 5.2692 13.167 14.824-0.4907 31.678-0.68025 37.453-0.42121 5.775 0.25903 31.2 0.71603 56.5 1.0156 25.3 0.29952 56.35 0.75015 69 1.0014s46.85 0.7085 76 1.0161c29.15 0.30761 61.325 0.76564 71.5 1.0178 10.175 0.25221 38.75 0.68195 63.5 0.95498 24.75 0.27304 58.95 0.72797 76 1.011 17.05 0.283 51.7 0.74114 77 1.0181s59.95 0.736 77 1.0201c30.122 0.50191 56.926 0.93409 121 1.951 17.05 0.27059 51.925 0.73252 77.5 1.0265 25.575 0.29399 61.575 0.73855 80 0.98792 18.425 0.24936 59.15 0.74955 90.5 1.1115 31.35 0.36198 57.097 0.73492 57.216 0.82876 0.119 0.0938 25.208 0.29599 55.753 0.44923l55.537 0.27861 0.8554-2.3123zm1294.5-7.3579c1.0609-2.7644-7.0145-19.753-9.9191-20.868-2.0871-0.8009-633.21-0.88255-634.51-0.0821-1.2203 0.75417-0.3813 5.631 1.6544 9.6165 2.0441 4.0019-7.9688 3.5993 133.9 5.3835 88.893 1.1179 170.64 2.4498 183 2.9815 4.4 0.18932 14.975 0.38967 23.5 0.44522 21.327 0.13897 134.47 1.8925 162 2.5107 12.375 0.27789 47.925 0.7905 79 1.1391 31.075 0.34863 56.639 0.75442 56.808 0.90176 0.7513 0.65365 4.1019-0.83713 4.559-2.0284zm-654-8.5706c3.8383-1.0658 3.8607-1.1014 3.2182-5.1197-1.3048-8.1597-0.2528-7.7913-22.369-7.8344-203.86-0.39756-615.17-0.10862-616.04 0.43276-8.1676 5.0479-8.1398 5.0489 191.33 7.0445 31.35 0.31364 66.675 0.79608 78.5 1.0721 11.825 0.276 44.675 0.71314 73 0.97141 55.292 0.50416 102.88 1.2393 131 2.024 9.625 0.26853 48.55 0.76658 86.5 1.1068 37.95 0.3402 69.188 0.79145 69.417 1.0028 0.6071 0.55991 1.1717 0.48737 5.4485-0.70016zm-2112.1-4.87c4.4975-1.0769 12.227-2.9163 17.177-4.0876 19.568-4.6303 72.315-10.736 107.5-12.443 21.893-1.0625 81.235 2.4222 94.789 5.5662 14.291 3.3151 14.881 3.1684 25.491-6.3375 5.071-4.5431 11.582-10.21 14.47-12.593 7.07-5.83 3.87-10.14-7.53-10.14-1.0837 0-3.7749-0.63667-5.9804-1.4148-2.2055-0.77815-8.4496-1.9461-13.876-2.5954-5.4262-0.64933-13.466-1.8471-17.866-2.6617-27.895-5.1645-78.948-7.4496-99.13-4.4371-7.7714 1.16-16.844 2.1091-20.162 2.1091-16.443 0-46.058 9.7307-63.126 20.741-4.6967 3.0299-10.349 6.1471-12.561 6.9272-2.2118 0.78007-8.2964 4.6711-13.521 8.6468-5.225 3.9757-11.405 8.5119-13.732 10.081-7.1854 4.8419-4.6258 5.6828 8.0553 2.6464zm1462.9-3.63c2.7557-0.5682 3.6771-2.7171 1.6913-3.9444-1.7568-1.0858-165.27-0.53269-166.37 0.56271-0.6315 0.63144 0.9417 1.0461 4.4764 1.18 2.9975 0.11352 7.475 0.28826 9.95 0.38831s30.6 0.51509 62.5 0.92231 58.132 0.85246 58.294 0.98943c0.623 0.52692 26.848 0.43936 29.456-0.0983zm1248.2-48.553c10.464-3.5848 12.07-15.298 4.3514-31.739-2.2248-4.7388-4.8928-10.416-5.929-12.616s-1.8827-5.2087-1.8812-6.686c0.01-7.6464-41.143-54.778-59.869-68.57-1.9956-1.4698-5.4803-4.2635-7.7438-6.2081-4.24-3.6428-6.4989-5.5958-26.829-23.196-6.5692-5.6871-14.688-12.851-18.043-15.921-3.3542-3.0693-9.0044-7.2813-12.556-9.36-3.5515-2.0787-8.3568-5.5272-10.678-7.6633-2.3216-2.1361-6.793-5.5291-9.9365-7.54s-8.4558-6.1761-11.805-9.2561c-3.3493-3.08-9.3489-7.85-13.332-10.6-3.9836-2.75-10.149-7.0846-13.701-9.6324-3.5521-2.5478-9.956-6.7794-14.231-9.4036s-8.8977-5.7608-10.273-6.9704c-4.1153-3.62-14.162-9.3439-19.5-11.11-2.75-0.9097-5.9-2.4566-7-3.4376-1.9345-1.7251-15.619-10.027-30.686-18.615-4.0226-2.293-12.489-6.4667-18.814-9.2749s-14.137-6.4896-17.359-8.1807c-3.2226-1.6912-10.423-4.0986-16-5.3498-9.0279-2.0254-13.864-2.6928-30.641-4.2282-9.4748-0.86717-31.199-1.201-112.5-1.7287-46.2-0.29989-114.89-0.7677-152.64-1.0396-76.762-0.55279-71.308-1.0882-70.214 6.8922 1.5471 11.287 2.2128 11.526 29.356 10.542 6.5886-0.23884 10.249 0.06308 11.944 0.98518 2.6876 1.4619 2.5005 1.4594 189.06 2.5546 82.808 0.48615 107.96 0.9288 116.96 2.058 6.4 0.783 12.9 1.43 14.6 1.43 1.7171 0 5.3121 1.1087 7.9888 2.4639 2.6768 1.3551 6.2258 2.7624 7.8867 3.1272s3.7096 1.0447 4.5527 1.5109c0.843 0.46617 7.3828 3.692 14.533 7.1686 7.15 3.4765 14.858 7.509 17.128 8.961 2.2706 1.452 5.7896 3.3341 7.82 4.1825 2.0305 0.84838 7.2879 4.2523 11.683 7.5642 4.3953 3.312 8.5485 6.0217 9.2292 6.0217s4.8683 2.3625 9.3057 5.25c4.4373 2.8875 9.5532 6.15 11.368 7.25 7.4977 4.5432 9.8239 6.1448 13.071 9 1.8767 1.65 5.883 4.558 8.9029 6.4622 13.394 8.4458 31.963 21.932 37.184 27.005 3.131 3.0428 8.4337 7.7824 11.784 10.532 3.35 2.75 8.6846 7.25 11.855 10 3.17 2.75 7.7403 6.125 10.156 7.5 2.416 1.375 6.1382 4.3 8.2716 6.5 2.1335 2.2 6.4354 6.6423 9.56 9.8718 3.1245 3.2295 8.831 8.2326 12.681 11.118 8.6899 6.5128 13.581 11.278 20 19.486 2.75 3.5162 7.2577 8.8977 10.017 11.959 2.7595 3.0611 6.3595 7.7305 8 10.376 1.6405 2.646 4.506 7.146 6.3677 10 8.7447 13.406 12.447 23.113 12.534 32.861l0.081 9.0339-3.5 2.9306c-1.925 1.6118-5.3 3.4191-7.5 4.0161-2.2 0.59702-6.1799 1.7572-8.8443 2.5782-4.0177 1.238-14.341 1.5223-60.5 1.6663l-55.656 0.17362-5.232 2.7224c-6.0698 3.1584-9.1386 6.953-7.358 9.0985 2.2975 2.7683 48.846 5.5613 95.59 5.7356 19.8 0.0738 39.375 0.48294 43.5 0.90912 11.868 1.2262 48.812 0.41001 53.456-1.181zm-194.4-17.92c0-0.51754-1.125-0.94098-2.5-0.94098-2.846 0-3.3958 1.6499-0.75 2.2507 2.0683 0.46968 3.25-0.007 3.25-1.3098zm239.5-4.8997c3.1222-0.62103 9.8824-0.68261 18-0.16398 7.15 0.4568 13.195 0.66378 13.433 0.45995 1.4652-1.2531-2.828-2.6611-9.0684-2.9742-3.9944-0.20038-10.529-1.039-14.522-1.8637-3.9925-0.82467-11.441-1.5154-16.551-1.5348-6.164-0.0235-10.134-0.51655-11.792-1.4646-5.3295-3.0466-9.7288-1.5398-8.6028 2.9464 1.1463 4.5672 16.809 7.0402 29.103 4.5949zm-640.62-1.9322c1.9197-1.2365 0.6261-7.8291-1.6665-8.4933-9.974-2.8897-22.806-1.275-22.505 2.8319 0.2979 4.0718 1.1772 4.6047 8.9099 5.4001 11.223 1.1544 13.807 1.1986 15.262 0.26132zm524.58-1.1754c8.8131-1.2241 11.204-2.2694 16.922-7.3978l3.8889-3.488-0.5146-6.4104c-0.5489-6.8388-1.1496-8.1287-12.256-26.321-4.1327-6.769-8.8545-12.668-15.209-19-5.0684-5.0509-9.846-10.676-10.617-12.5-1.3906-3.2905-4.9332-6.8461-20.234-20.308-4.3706-3.8454-9.9716-9.3394-12.447-12.209-2.475-2.8695-8.1-7.7179-12.5-10.774-10.413-7.2332-19.065-14.048-31.172-24.555-9.7275-8.4418-20.45-16.337-39.828-29.327-5.5-3.6868-12.323-8.3773-15.162-10.423-18.541-13.363-20.516-11.905-14.601 10.78 1.3625 5.225 3.5394 13.775 4.8375 19s3.7538 14.9 5.4571 21.5 3.5608 14.025 4.1277 16.5c0.567 2.475 2.1721 8.55 3.5671 13.5 1.3949 4.95 3.0921 11.475 3.7715 14.5s3.7749 15.175 6.8789 27 6.1607 23.525 6.7927 26 2.388 8.325 3.9022 13c1.5143 4.675 3.0568 10.411 3.4279 12.747 1.0482 6.598 3.2717 8.6214 10.145 9.2324 10.825 0.96221 102.6 0.0961 110.82-1.0458zm-144.54-0.34123c1.4957-1.8021 1.6659-1.01-9.9066-46.092-4.5179-17.6-9.286-36.725-10.596-42.5-1.3099-5.775-3.274-13.875-4.3648-18s-3.1324-12.45-4.537-18.5c-1.4045-6.05-3.0523-12.8-3.6617-15-1.9471-7.029-11.907-45.858-12.769-49.779-1.1846-5.3902-3.8274-7.9873-7.566-7.4351-1.6624 0.24555-8.1975 0.0407-14.522-0.45519-6.325-0.49591-17.125-1.3004-24-1.7878-6.875-0.48739-14.975-1.3748-18-1.9719-3.025-0.59716-13.6-1.1348-23.5-1.1948s-31.725-0.28258-48.5-0.49459c-105.94-1.339-208.78-0.51098-223.83 1.8022-12.846 1.974-13.175 3.1303-6.2028 21.816 1.7444 4.675 4.2896 12.325 5.6561 17 2.5577 8.7503 4.6485 14.995 9.3739 28 1.4989 4.125 5.0939 14.025 7.9889 22s6.5286 18.622 8.0748 23.661c1.5461 5.0384 7.1442 19.888 12.44 33 5.2959 13.112 10.218 26.089 10.938 28.839 0.7199 2.75 2.491 7.6003 3.9356 10.779 1.4447 3.1782 2.6267 6.1845 2.6267 6.6807 0 1.4843 4.3852 7.869 6 8.7357 3.8094 2.0447 343.24 2.928 344.92 0.89761zm15.88-1.5025c0.3286-0.98583-0.3823-1.1258-2.9348-0.57788-4.3918 0.94273-5.3577 1.5675-3.8572 2.4948 1.6394 1.0132 6.249-0.28776 6.792-1.917zm-459.38-1.1892c0.5497-0.50244-2.4386-14.238-7.4235-34.121-4.5889-18.304-8.6773-35.53-9.0853-38.28-0.7476-5.0398-7.2116-23.952-8.8691-25.949-0.4912-0.59182-3.0087-5.1204-5.5946-10.063-2.5858-4.9431-5.2651-9.6624-5.954-10.487-0.6888-0.825-2.0369-3.075-2.9957-5-0.9589-1.925-3.4185-5.075-5.4659-7-2.0475-1.925-5.5235-5.975-7.7247-9-15.49-21.288-49.532-48.785-65.307-52.751-2.475-0.62221-8.1-2.0338-12.5-3.1369-8.0768-2.0249-24.209-3.9058-32.5-3.7891-2.475 0.0348-8.55-0.48418-13.5-1.1534-11.09-1.4992-1.2331-1.3671-101.5-1.3609-46.475 0.003-95.233-0.004-108.35-0.0158-30.645-0.0269-27.111-4.8146-27.312 36.994-0.089 18.544-0.5876 37.09-1.1074 41.214-1.0066 7.986-0.9864 9.8901 0.8165 76.998 0.8002 29.785 1.5287 43.873 2.3109 44.684 1.2739 1.3209 51.115 1.8484 274.64 2.9065 71.775 0.33976 130.68 0.78761 130.9 0.99522 0.5835 0.5528 5.4484-0.70437 6.5216-1.6853zm32.188 0.67732c1.6-4.34-1.2-5.58-12.8-5.58-11.475 0-13.864 0.96949-10.972 4.4534 2.2181 2.6726 22.68 3.6458 23.647 1.1248zm-606.31-1.6734c1.9267-3.0782 0.015-6.9048-3.4498-6.9048-1.7136 0-5.8675-0.49499-9.2309-1.1-8.0103-1.4408-11.615-0.21404-11.615 3.9528 0 4.0823 1.6026 4.9932 9.5417 5.4232 11.028 0.59739 13.676 0.35131 14.754-1.3713zm-31.6-0.66c2.7295-5.209-2.0866-7.6575-16.89-8.587-10.343-0.64945-11.651-0.0801-10.342 4.5008l0.9537 3.3363 10.966 1.0988c6.0311 0.60432 11.737 1.1668 12.68 1.25 0.9432 0.0832 2.1275-0.63625 2.6319-1.5988zm113.95-0.50846c0.5944-0.71618 1.1598-7.716 1.3121-16.244 0.1473-8.2421 0.6502-17.425 1.1176-20.405 0.4965-3.1659 0.4269-11.07-0.1674-19.006-0.5596-7.4723-1.1613-42.497-1.3371-77.834-0.2479-49.84-0.6009-64.528-1.5741-65.5-1.4138-1.4116-62.971-1.956-71.151-0.62916-2.475 0.40147-6.525 0.34455-9-0.12649-18.199-3.4636-21.373-2.4163-19.931 6.5752 0.6113 3.8104 1.4784 10.753 1.9271 15.428 0.4486 4.675 1.2803 11.875 1.8482 16s1.6967 12.52 2.5084 18.656c0.8118 6.1357 2.0027 12.14 2.6466 13.343 0.6439 1.2031 0.8788 3.3504 0.522 4.7718-0.6371 2.5383 0.1169 10.367 3.0076 31.229 0.8002 5.775 2.3787 17.925 3.5078 27s2.7056 20.325 3.5032 25c1.3251 7.7664 2.8198 19.593 4.1073 32.5 0.2743 2.75 0.9705 6.2375 1.5471 7.75l1.0482 2.75h36.756c28.317 0 36.996-0.28895 37.801-1.2585zm-148.89-1.1373c1.5353-1.85-1.8096-36.132-6.8401-70.104-1.2861-8.6857-3.7997-28.983-4.5819-37-0.322-3.3-1.6799-15-3.0176-26s-2.883-24.576-3.4339-30.17c-2.2064-22.399-5.0049-34.032-8.3912-34.882-2.2293-0.5595-173.39-0.92151-181.65-0.38419-2.475 0.161-27.233-0.0842-55.018-0.54485-58.221-0.96529-55.526-1.302-54.604 6.8218 0.6552 5.7749 0.733 13.707 0.8403 85.659 0.041 27.775 0.1861 54.325 0.3215 59s0.2944 16.401 0.3534 26.059c0.077 12.634 0.4699 18.055 1.4002 19.327 1.2159 1.6629 6.9437 1.7991 96.25 2.2885 52.226 0.28622 95.032 0.58908 95.125 0.673 1.4711 1.3398 122.12 0.61222 123.25-0.74318zm1365.6 0.34396c1.5431-2.4967-9.2349-11.226-12.991-10.522-1.9315 0.36234-5.2059 0.21352-7.2766-0.33072-7.0644-1.8568-32.834-2.3201-34.248-0.61577-4.1408 4.9894 13.017 11.237 24.792 9.0282 3.5044-0.65742 17.126 0.89422 22.191 2.5278 3.6045 1.1625 6.7822 1.1256 7.532-0.0876zm-1755.3-2.1433c1.6426-1.2349 2.1368-16.06 1.51-45.305-0.035-1.65 0.2247-35.938 0.5779-76.196 0.7668-87.396 4.2013-76.32-23.645-76.254-11.648 0.0276-101.33-0.228-199.28-0.56796l-178.11-0.61811-4.1074 4.6662c-2.259 2.5664-5.2135 6.5345-6.5655 8.818-3.2308 5.4566-16.31 25.429-22.037 33.652-2.49 3.575-7.3757 11.45-10.857 17.5-3.4815 6.05-9.2309 15.194-12.776 20.32-3.5455 5.126-7.3464 10.877-8.4464 12.781-2.0568 3.5592-7.9379 12.862-17.006 26.899-2.8423 4.4-7.5489 11.825-10.459 16.5-2.9102 4.675-7.1931 11.425-9.5175 15-13.92 21.409-17.551 27.175-20.897 33.187l-3.7224 6.6875 2.2931 1.2272c1.7828 0.95415 47.353 1.3174 204.8 1.6326 111.38 0.22297 202.91 0.50742 203.4 0.63211 4.2874 1.0917 113.36 0.55792 114.85-0.56202zm1487.4-2.28c1.6801-1.2819 1.7394-1.6159 0.4411-2.4847-3.0545-2.0438-9-0.39176-9 2.5009 0 1.9639 5.9784 1.9526 8.5589-0.0162zm-2024.9-3.04c5.2804-0.75971 7.7845-2.3968 7.0476-4.6075-1.4933-4.4798-24.781-1.6236-26.321 3.2283-1.1731 3.696 1.7278 3.9036 19.274 1.3792zm1628.7-1.98c0.6698-1.7455-0.2447-4.6774-1.7887-5.7347-3.2181-2.2036-23.573-0.81143-23.573 1.6122 0 3.6268 1.8902 4.5005 10.547 4.8755 4.3739 0.18946 9.367 0.43503 11.096 0.54572 2.0142 0.12896 3.3497-0.33748 3.7186-1.2988zm-32.55-2.1885c0.8018-5.6332-9.6415-7.9682-21.01-4.6979-2.6581 0.76462-3.3841 4.487-1.1883 6.0926 3.4262 2.5054 21.808 1.3505 22.199-1.3947zm-604.99-0.18167c2.2636-1.4352 1.045-7.3882-1.8242-8.9112-2.3948-1.2712-18.982-0.96604-21.175 0.38958-4.5159 2.791 0.2983 8.1902 7.7096 8.6464 11.726 0.7219 13.983 0.70348 15.29-0.12476zm-32.406-1.7368c2.0767-0.79689 2.0535-5.7566-0.035-7.4899-7.7373-6.4214-31.888 0.19256-25.183 6.8969 1.2604 1.2604 22.196 1.7527 25.218 0.59301zm1063-0.36826c2.8587-1.0869 3.5359-4.715 1.0576-5.666-2.3513-0.90227-8.5355 0.5897-9.1569 2.2092-1.3421 3.4972 3.0559 5.3743 8.0993 3.4568zm251.6-3.35c0-1.4543-3.0551-4.4933-7.0882-7.051-1.4236-0.90276-5.4736-1.8475-9-2.0994-3.5265-0.25191-10.012-1.1874-14.412-2.0788-12.537-2.54-17.003 0.8261-11.448 8.6276l2.0518 2.8815 17.698 0.29747c9.734 0.1636 18.711 0.39889 19.948 0.52286 1.3152 0.13175 2.25-0.32538 2.25-1.1003zm-2371.9-3.53c1.0522-1.2984 1.913-3.4066 1.913-4.6849s0.46909-3.5579 1.0424-5.0659c0.57333-1.508 1.9267-6.0417 3.0076-10.075 1.9091-7.1242 6.1997-17.777 19.66-48.813 3.5781-8.25 9.7907-23.1 13.806-33 9.3077-22.949 18.271-44.656 22.917-55.5 3.384-7.8978 5.9379-14.048 22.63-54.5 3.4044-8.25 7.1942-17.925 8.4217-21.5s3.5879-9.6744 5.2453-13.554c9.6133-22.504 5.7139-33.651-15.186-43.414-10.975-5.1268-8.9866-4.7838-38.045-6.5614-56.373-3.4486-102.83 0.008-128.51 9.5607-4.6711 1.738-10.431 3.7555-12.799 4.4833-8.95 2.746-30.19 20.169-30.19 24.76 0 0.81113-0.66068 2.0231-1.4682 2.6933-1.414 1.1735-3.2704 4.2035-9.819 16.026-1.6755 3.025-4.6654 8.2-6.6441 11.5-1.9788 3.3-4.1304 6.9-4.7813 8-3.306 5.5865-18.966 31.583-21.385 35.5-10.112 16.375-19.162 31.626-22.847 38.5-4.0262 7.5112-24.713 42.809-29.596 50.5-1.2222 1.925-4.1657 6.875-6.5411 11s-5.3538 8.772-6.6187 10.327c-1.2649 1.5547-2.3009 3.3547-2.3021 4-0.001 0.6453-2.3126 5.2233-5.1362 10.173-2.8237 4.95-6.8337 12.15-8.9111 16s-5.3759 9.7-7.3299 13c-18.288 30.887-21.364 28.26 33.88 28.927 50.937 0.61521 105.42 1.4617 136 2.1131 38.694 0.8242 65.921 1.5472 66.13 1.7562 1.7313 1.7313 21.802-0.11462 23.457-2.1574zm-162.42-13.79c-0.0917-0.0844-17.492-0.43159-38.667-0.77144-43.815-0.7032-51-1.1336-51-3.0547 0-1.1994 12.255-21.231 18.977-31.02 1.5108-2.2 3.5531-5.575 4.5385-7.5 0.98537-1.925 4.5734-7.775 7.9734-13 10.375-15.944 24.028-38.035 29.047-47 2.6175-4.675 6.4292-10.975 8.4705-14s4.7022-7.4483 5.9131-9.8295 5.8867-9.8708 10.391-16.643c8.2256-12.369 13.727-21.041 21.587-34.027 11.722-19.368 21.648-35.512 24.594-40 1.81-2.75 6.32-10.175 10.04-16.5 11.04-18.817 20.64-27.056 36.47-31.312 3.025-0.81346 7.525-2.1707 10-3.016 25.08-8.5661 124.97-8.3861 142.5 0.25672 16.93 8.3475 18.601 16.658 8.0938 40.247-3.02 6.778-8.69 20.199-12.59 29.824-9.3502 23.034-11.467 27.969-16.079 37.5-2.1296 4.4-8.2002 18.8-13.49 32-5.2901 13.2-10.437 26.025-11.438 28.5-1.0006 2.475-3.1565 7.875-4.7908 12s-5.5488 13.575-8.6989 21c-7.4352 17.526-18.977 46.361-22.581 56.416-3.5439 9.8866-2.8605 9.5272-18.419 9.6868-20.236 0.20751-140.65 0.41595-140.83 0.24379zm96.306-5.8371c50.142-0.469 54.611-0.64862 56.218-2.2594 1.836-1.8404 6.1679-11.873 15.868-36.75 6.4899-16.644 13.318-33.121 17.196-41.5 4.6424-10.028 7.0253-15.45 8.7889-20 0.95944-2.475 3.9915-10.35 6.7379-17.5s6.0032-15.475 7.2372-18.5c3.4379-8.4272 6.0462-15.228 6.948-18.116 1.6533-5.2947 1.3503-5.3558-28.389-5.7281l-27.496-0.34421-9.1025 4.8442c-6.9853 3.7175-10.61 6.4724-15.586 11.844-3.5657 3.85-8.0197 8.575-9.8978 10.5-3.1916 3.2712-10.148 12.468-21.996 29.081-2.75 3.8559-7.1505 9.8026-9.7788 13.215-2.6283 3.4122-6.1234 8.004-7.7669 10.204-3.5782 4.79-10.076 13.446-17.263 23-2.8966 3.85-8.3734 11.725-12.171 17.5-3.7972 5.775-9.8936 13.875-13.547 18-18.254 20.608-19.176 24.556-5.473 23.43 2.75-0.22597 29.513-0.64013 59.472-0.92035zm172.5 19.9c6.6498-0.94131 14.714-9.1811 9.2759-9.4781-13.866-0.75731-22.396 0.71319-25.093 4.3259-3.0787 4.1236 1.9361 7.407 9.343 6.1174 0.825-0.14364 3.7383-0.57801 6.4741-0.96526zm1614.5-1.6997c2.8249-1.4292 3.7209-4.1473 2.0362-6.1772-1.6187-1.9505-23.856-2.1431-24.597-0.21304-0.8982 2.3408 1.3528 6.5061 3.7654 6.9673 5.048 0.96502 16.438 0.6153 18.795-0.57707zm-29.647-1.724c5.5314-5.0718-12.986-9.4588-21.253-5.0349-2.5453 1.3622-2.728 4.57-0.3412 5.9924 1.9364 1.154 20.173 0.34542 21.594-0.95748zm427.49-1.8645c3.4917-2.2133 0.8611-5.6102-4.5875-5.9239-5.1902-0.29882-5.25-0.26941-5.25 2.5833 0 4.1594 5.5645 6.049 9.8375 3.3405zm-1039.4-1.47l9-1.164 0.3036-3.1194c0.37-3.8014-0.5269-4.1356-13.522-5.038-11.914-0.82738-15.331 1.8593-10.725 8.4348 1.7422 2.4874 2.307 2.5209 14.943 0.88654zm-22.103-1.3509c0.3144-0.9972 0.2032-3.1631-0.247-4.8131l-0.8186-3-10.47 0.0926c-17.745 0.15692-25.122 7.1566-8.8608 8.4074 17.122 1.3171 19.793 1.2272 20.397-0.68691zm1295.6-4.92c0-0.75455-2.8125-3.4462-6.25-5.9814l-6.25-4.6095-10.937 0.58532c-12.989 0.69509-13.753 1.1857-9.4605 6.0744 3.028 3.4487 3.5777 3.6791 7.8273 3.2804 4.0972-0.38442 19.741 1.5932 20.774 2.6261 0.8872 0.88716 4.2966-0.68025 4.2966-1.9752zm-2236.2-2.91c6.6723-0.27053 12.587-5.6723 8.477-7.7416-2.409-1.2129-22.356 1.046-24.233 2.7441-4.5897 4.1536-2.1211 6.7801 5.4829 5.8337 2.75-0.34228 7.3729-0.71854 10.273-0.83614zm1601.9-1.0307c2.9003-1.9003 2.5273-5.8272-0.8229-8.6648-1.9672-1.6661-22.984-2.0276-24.589-0.42286-0.9911 0.99112 0.7237 7.4136 2.3369 8.7525 3.6748 3.0498 18.601 3.2666 23.075 0.3352zm-31.692 0.53489c1.6726-1.0337 0.6763-8.7162-1.3996-10.792-1.3379-1.3379-2.6387-1.3724-10.327-0.27428-4.8378 0.69103-9.471 1.3466-10.296 1.4569-1.8035 0.241-1.7014 7.0733 0.1389 9.2907 1.2814 1.544 19.472 1.809 21.883 0.31884zm428.8-2.18c3.4569-3.4569 0.4636-6.4472-5.3601-5.3547-3.6601 0.68664-5.0794 2.4458-4.0783 5.0547 0.7044 1.8357 7.681 2.0574 9.4384 0.3zm-1072.9-2.777c11.671-1.3419 12.134-1.5503 12.134-5.4679 0-5.0161-1.9129-6.0495-8.6819-4.6901-3.1084 0.62425-8.4535 1.135-11.878 1.135-7.5532 0-8.2333 1.0116-5.8827 8.75 0.4544 1.4958 3.2149 1.5484 14.309 0.27297zm43.669-2.0798c4.2129-6.8165-17.9-12.018-24.912-5.8597-2.5679 2.2554 0.3805 5.8068 5.1322 6.1817 10.54 0.83159 19.153 0.69137 19.78-0.32202zm1238.6-5.1014c11.004-3.2969-4.2305-12.28-15.884-9.3662-3.0586 0.7648-2.8479 3.5932 0.5 6.7127 4.3493 4.0525 8.389 4.7493 15.384 2.6536zm-2193.2-2.33c2.7353-3.2958 0.55528-4.3056-10.171-4.7115-12.571-0.47572-16 0.85978-13.324 5.1898 1.0598 1.7148 22.029 1.2879 23.495-0.47832zm1977.6 0.0191c1.8626-1.4088 1.8322-1.4695-0.7499-1.5-2.7153-0.0321-4.295 1.1488-3.1151 2.3287 0.9556 0.95562 1.7236 0.79095 3.865-0.82872zm-432.32-3.1047c6.006-0.86729 7.1135-2.1318 5.6199-6.4165l-1.1453-3.2854-9.8905 0.545c-12.424 0.68458-15.165 3.1827-11.073 10.091 0.4932 0.83266 6.6836 0.48206 16.489-0.93385zm35.266-0.36282c4.3581-0.73321 5.1991-3.7938 1.9385-7.0543-4.2473-4.2473-25.123-2.0801-24.621 2.556 0.6529 6.0267 6.5943 7.205 22.682 4.4983zm-670.6-1.98c1.925-0.49664 5.1875-1.1895 7.25-1.5397 3.0794-0.52288 3.75-1.0538 3.75-2.969 0-3.1753-2.3826-4.9489-5.5727-4.1482-1.4293 0.35872-6.6075 0.6586-11.507 0.66639-9.2767 0.0148-11.432 1.0559-10.151 4.9047 1.3604 4.0881 7.6851 5.2906 16.231 3.0858zm42.25-1.7738c3.8005-2.1794-1.2843-8.0475-7.664-8.8446-12.053-1.506-21.303 3.673-16.011 8.965 1.5754 1.5754 20.889 1.4772 23.675-0.12042zm1026.3-2.3368c2.6328-2.1851 0.4996-4.2426-3.8007-3.6658-4.6484 0.62348-6.248 1.896-5.3442 4.2512 0.7251 1.8894 6.6174 1.5122 9.1449-0.58547zm-1970.2-3.13c2.9749-4 1.5122-5.2392-5.1572-4.3692-3.0873 0.40271-8.6151 1.0237-12.284 1.38-7.2259 0.70164-8.384 1.2512-7.4987 3.5582 0.44265 1.1535 2.7484 1.586 9.8735 1.8521 13.062 0.48765 12.882 0.51658 15.066-2.421zm2168.8-1.5304c3.1908-3.1908-8.712-8.1037-13.024-5.3757-1.973 1.2483 0.091 5.8057 3.1409 6.9338 2.3091 0.85422 8.4365-0.11181 9.8828-1.5581zm-1266.6-4.65c8.3562-1.2326 10.835-3.4872 7.1734-6.5258-1.6686-1.3848-19.204-2.7296-23.04-1.7669-5.0094 1.2573-3.2529 7.8579 2.3661 8.891 3.8705 0.7116 4.9415 0.66414 13.5-0.59824zm630.27 0.43347c14.1-2.01 8.6-11.1-6.8-11.1-10.577 0-12.489 1.1045-10.844 6.2644 0.5671 1.7796 1.2023 3.7981 1.4116 4.4856 0.428 1.4058 7.7092 1.5644 16.217 0.35323zm36.976-0.59527c2.8907-0.70155 3.0249-4.7331 0.25-7.508-3.9099-3.9099-25-2.4313-25 1.7527 0 5.9976 12.13 8.8181 24.75 5.7552zm397.34-0.55813c2.5969-1.3898 1.5016-2.9498-2.0709-2.9498-3.871 0-6.0228 0.93141-6.0228 2.607 0 1.6739 5.1955 1.8939 8.0937 0.34284zm-1032.1-2.34c5.8664-0.0886 6.5301-0.30913 6.8083-2.2623 0.7003-4.9159-21.765-5.1988-23.322-0.29369-1.0362 3.2649 0.3131 4.1104 5.3521 3.354 2.5637-0.38489 7.5863-0.74398 11.161-0.79798zm-927.82-2.7226c6.4341-3.3405 2.4702-7.0703-6.6823-6.2877-12.539 1.0721-17.547 3.2416-16.112 6.9796 0.66633 1.7364 19.201 1.1738 22.795-0.69191zm2145.4-1.9754c0.3739-0.60491-0.225-2.2924-1.3308-3.75-3.0476-4.017-11.307-3.1185-9.7053 1.0558 1.1862 3.0914 9.5315 5.1287 11.036 2.6942zm-188.8-3.6c4.4023-1.0484 2.3501-2.5447-2.5-1.8227-5.4255 0.80764-5.713 0.96182-4.7373 2.5406 0.4116 0.66602 1.6163 0.87136 2.8502 0.48579 1.1754-0.36731 3.1496-0.90898 4.3871-1.2037zm-1054.8-1.781c2.0108-2.4229 0.022-8.7888-3.0104-9.6336-7.888-2.198-22.215-0.0228-23.599 3.5828-1.6566 4.317 2.0412 5.4666 23.755 7.3853 0.8951 0.0791 2.1796-0.52143 2.8544-1.3345zm30.848-2.3955c0.7554-0.47892 1.1875-2.0924 1-3.7347l-0.3-2.89-12.36-0.0459c-13.251-0.0492-13.94 0.22397-12.729 5.0482 0.655 2.6098 20.755 3.9465 24.419 1.6239zm593.99-1.6977c3.0156-0.95834 0.7675-4.828-3.3201-5.7151-9.7047-2.106-21.713 0.91504-18.591 4.677 1.7378 2.094 16.402 2.7887 21.911 1.038zm32.93 0.0192c1.9117-0.58864 1.4874-3.2502-0.7053-4.4237-5.3044-2.8389-24.045-0.92034-24.045 2.4616 0 3.028 16.929 4.3702 24.75 1.9622zm-1551-2.0728c6.0941-3.8487 3.0354-5.6641-8.7266-5.1795-12.043 0.49617-17.333 2.6428-13.471 5.4664 2.4228 1.7716 19.283 1.5537 22.198-0.28687zm1946.8-1.8034c1.7433-1.283 1.7725-1.494 0.2863-2.0705-3.0492-1.1828-8.3061-0.12108-8.6603 1.749-0.4233 2.2343 5.4676 2.4604 8.374 0.32142zm-1057.7-8.11c9.1027-2.0342 0.5552-9.1084-9.1505-7.5731-3.9047 0.61765-8.6745 1.2322-10.6 1.3657-3.5483 0.24606-5.8242 4.9889-3.1835 6.6342 1.1032 0.68732 19.478 0.34537 22.934-0.42677zm32.81-1.5146c3.459-2.8707 0.6263-8.1193-3.9848-7.3831-1.0586 0.16901-3.8345-0.0495-6.1686-0.48555-8.7784-1.64-19.144 6.615-10.657 8.487 1.5125 0.33359 3.2 0.78615 3.75 1.0057 2.0573 0.82124 15.676-0.47515 17.06-1.624zm594.25-0.61424c0.3618-2.5394-0.6148-2.9118-10.058-3.835-10.593-1.0357-16.216 1.7004-12.052 5.8643 1.9858 1.9858 21.797 0.16753 22.11-2.0293zm32.905 1.0302c1.1444-3.448-14.178-6.7406-22.679-4.8736-2.9511 0.64819-4.264 3.9442-2.3381 5.87 1.1957 1.1958 24.599 0.26357 25.017-0.99647zm396.1-0.57c3.1252-3.1252-0.5832-5.9479-6.6294-5.0462-3.4617 0.51625-4.7947 2.1773-3.809 4.7462 0.7089 1.8474 8.6624 2.076 10.438 0.3zm163.2-0.17756c0-1.6663-1.7206-3.1387-4.7549-4.069-3.0436-0.93315-4.3451 2.169-1.7165 4.0912 2.4135 1.7647 6.4714 1.7508 6.4714-0.0222zm-2100.6-1.6c5.515-2.0968 3.099-4.1253-4.1849-3.5137-14.133 1.1866-16.8 1.7907-15.707 3.5581 0.76267 1.234 16.623 1.1987 19.892-0.0443zm876.07-10.87c5.3727-0.70212 7.4814-4.2641 4.1574-7.0228-2.3153-1.9216-23.651-1.0967-24.948 0.96457-3.2896 5.2273 1.7698 9.0191 10.186 7.634 3.0826-0.50732 7.8547-1.2164 10.605-1.5758zm629.76 1.5966c1.5012-4.3698-2.0371-8.7115-7.1184-8.7347-12.246-0.0559-23.455 7.7319-13.346 9.273 6.7541 1.0297 20.046 0.68005 20.465-0.53836zm31.7-2.74c0-3.8736-1.51-4.7445-9.5-5.4791-9.414-0.86549-16.123 1.0467-15.728 4.483 0.3934 3.4292 0.435 3.4436 11.557 3.9903 12.887 0.6335 13.671 0.46173 13.671-2.9942zm-1538 1.9331c14.747-1.8492 17.737-8.1483 3.735-7.8706-11.62 0.23045-13.15 0.62921-15.713 4.0957-3.6515 4.9389-1.8451 5.5082 11.978 3.775zm1935-0.44c2.289-2.7581-0.3617-4.4302-5.2788-3.3299-4.741 1.0609-6.2645 2.1418-5.2751 3.7427 1.0228 1.6548 9.1001 1.3389 10.554-0.41287zm149-0.5c-1.2273-2.2933-4-2.6976-4-0.58333 0 1.4264 1.4087 2.3584 3.7852 2.5044 0.9774 0.06 1.0288-0.39999 0.2148-1.921zm-1181-1.1051c8.9655-0.0197 11.632-1.2714 10.692-5.0182-0.6546-2.608 0.04-2.5432-20.899-1.9531-3.2956 0.0929-4.8887 2.6756-3.6598 5.9331 0.7256 1.9235 1.3655 2.237 3.4812 1.706 1.4257-0.35783 6.0991-0.65831 10.385-0.66773zm1026.6-8.5185c3.4702-0.87098 2.3663-2.8201-1.7994-3.177-4.1059-0.35177-7.3159 2.2485-4.7728 3.8663 0.7896 0.5023 2.04 0.69109 2.7786 0.41952s2.4457-0.77054 3.7936-1.1088zm143.4 0.23c0-0.77099-1.4599-2.3261-3.2442-3.4558-4.2211-2.6727-6.0369-1.1349-2.7682 2.3444 2.5618 2.727 6.0124 3.3648 6.0124 1.1114zm-577.3-3.2378c6.9035-0.71264 8.3131-2.1704 5.803-6.0013-2.8039-4.2793-22.5-3.1085-22.5 1.3375 0 4.9451 1.7772 6.6029 6.3486 5.9219 2.2833-0.34012 6.9399-0.90625 10.348-1.2581zm-1478-1.96c2.9293-1.8629 5.7604-7.3092 4.4702-8.5994-4.02-4.02-26.2 2.19-26.2 7.34 0 3.5946 16.548 4.551 21.729 1.2558zm856.92 1.0292c4.53-0.69173 6.381-3.1843 3.8128-5.1342-3.9065-2.9658-24.462-0.64364-24.462 2.7635 0 3.4924 7.5941 4.3643 20.65 2.3707zm651.66 0.3545 7.8096 0.19398-0.3096-3.7382-0.3097-3.7382-7 0.0763c-18.913 0.20608-20.467 0.77331-16.924 6.1795 1.4392 2.1965 2.0307 2.3819 5.2727 1.6534 2.0084-0.45134 7.166-0.73333 11.461-0.62664zm-618.5-2.95c3.4472-1.0471 4.3028-3.2142 1.6682-4.2251-4.4667-1.714-22.418 0.87378-22.418 3.2318 0 3.1166 11.887 3.6857 20.75 0.99338zm1022-4.07c3.6206-2.9167-0.5986-6.1778-6.4263-4.967-4.3565 0.90514-5.6581 3.756-2.7019 5.9176 1.9299 1.4112 6.8298 0.90089 9.1282-0.95064zm-1053-6.3138c1.7686-0.54541 1.5557-6.9497-0.2817-8.4746-1.8102-1.5024-19.244-0.69926-22.486 1.0359-1.9588 1.0483-2.8589 6.7803-1.3082 8.331 0.6549 0.65499 21.573-0.12023 24.076-0.89226zm33-1.7062c1.397-1.103 1.6476-5.5675 0.421-7.4995-0.8576-1.351-23.06-2.0472-25.099-0.78703-1.3395 0.82785-1.3817 4.5997-0.09 7.9982l0.9824 2.5839 11.268-0.65434c6.1972-0.35989 11.83-1.0985 12.518-1.6413zm617.5 0.0671c3.2179-1.2308 3.8304-5.6681 1.0955-7.9367-2.3744-1.9696-18.545-1.6268-21.731 0.46064-2.4831 1.627-2.6164 5.5942-0.2537 7.5479 2.3672 1.9574 15.704 1.9115 20.889-0.0718zm-28.827-0.91042c0.5608-0.51314 0.4878-1.7993-0.186-3.2781-2.6191-5.7484-24.636-3.6045-22.788 2.2189 0.9135 2.8781 20.023 3.7591 22.974 1.0591zm-1468.7-3.0831c3.2761-3.0778 2.8555-7.3901-0.69628-7.1386-17.888 1.2668-21.948 2.1155-23.193 4.8473-2.7921 6.1279 17.712 8.0945 23.889 2.2913zm1897.6-0.80566c1.185-1.1101-0.143-1.7113-5.5756-2.5244-4.9989-0.74817-7.9013 1.5116-4.6572 3.626 1.5026 0.97934 8.8566 0.18766 10.233-1.1016zm-1057.4-8.87l5.5-0.64396 0.3015-4.1271c0.4704-6.4389-1.1668-7.429-11.089-6.7065-11.997 0.8736-14.713 2.2088-14.713 7.2329 0 6.0387 1.6629 6.3916 20 4.2447zm1053.4-0.46006c3.134-2.2916 1.6106-5.1437-2.9262-5.4783-6.8483-0.50512-9.7364 3.5427-4.1391 5.8011 3.112 1.2556 5.0263 1.1682 7.0653-0.32279zm-429.04-1.7212c5.2588-4.8866-2.5943-10.231-13.729-9.3426-10.504 0.83767-12.888 3.4029-8.4321 9.074 1.7046 2.1696 19.878 2.3898 22.161 0.26858zm-586.85-0.98481c7.8726-6.5336-14.823-14.136-24.777-8.2997-2.195 1.2871-0.4784 8.5811 2.25 9.5601 2.8209 1.0122 21.015-0.006 22.527-1.2604zm617.6-0.64c1.2417-0.7626 0.8457-4.8298-0.672-6.9015-1.3813-1.8857-20.909-2.5906-23.716-0.85606-1.2115 0.74873-1.0736 5.1518 0.2381 7.6028 1.0384 1.9402 21.034 2.0683 24.15 0.15472zm-1485.7-1.99c4.0948-5.4046 1.0031-7.0933-9.9217-5.4192-11.42 1.75-14.62 2.86-14.62 5.07 0 3.5694 21.862 3.874 24.538 0.34187zm1881.1-6.35c1.6276 0 1.8783-4.5709 0.304-5.5439-1.9332-1.1948-9.7128 0.53818-10.395 2.3155-0.9154 2.3856 2.3124 4.4804 5.8409 3.7905 1.5813-0.30915 3.4938-0.56209 4.25-0.56209zm-1049.9-5.6136c2.7498-0.73574 3.5277-2.7078 2.3206-5.8828-1.4199-3.7345-24.062-1.1148-24.834 2.8733-0.8741 4.519 10.96 6.1009 22.513 3.0096zm603.89-0.5088c0.2995-0.48454 2.88-0.61452 5.7345-0.28885 7.3612 0.83986 11.111-0.75606 10.229-4.3538-1.2977-5.294-2.3028-5.6114-13.448-4.2461l-10.091 1.2361v3.3161c0 5.1465 5.2261 8.1381 7.5756 4.3366zm-1426.5-1.4038c1.1967-1.083 2.8472-3.2674 3.6678-4.8542 2.5118-4.8572 1.5658-5.0268-17.081-3.0622-10.025 1.0562-15.121 8.8697-6.3658 9.7594 9.4302 0.95822 17.516 0.20475 19.779-1.843zm852.9 0.7c6.4996-0.97621 6.7496-5.8981 0.4109-8.0896-5.3521-1.8504-20 1.0454-20.985 4.1485-1.4244 4.4878 6.6443 6.0334 20.574 3.9412zm616-1.0198c5.0529-0.7811 6.3806-5.8824 2.3303-8.9532-4.2087-3.1908-23.33-0.0499-23.33 3.8322 0 5.4092 7.424 7.2196 21 5.1209zm401.48-4.2348c1.9918-1.9893-0.9983-4.4092-5.8401-4.7265-5.226-0.34244-6.614 1.1119-4.619 4.8396 1.2327 2.3033 8.1143 2.2289 10.459-0.11312zm-1052.5-7.32c4.3985-1.0838 4.5-1.199 4.5-5.1088v-4l-9.7481-0.28619c-11.6-0.34-13.8 0.49-13.8 5.24 0 7.0941 3.7476 7.9137 19 4.1554zm25.709-1.6674c12.2-1.65 12.3-1.69 12.3-4.42 0-3.6692-2.4315-4.2757-14.5-3.6167l-11 0.6006-0.3223 2.8105c-0.6535 5.6993 1.1432 6.3142 13.532 4.631zm584.67-0.44872c9.0208-2.0921 9.6249-2.4052 9.6249-4.9889 0-5.9367-18.011-8.8927-23.111-3.793-1.7158 1.7158 1.3044 8.6201 4.1108 9.3974 1.375 0.38086 2.5846 0.73732 2.6879 0.79214 0.1034 0.0548 3.1126-0.57859 6.6872-1.4076zm-1417.8-3.01c2.9363-4.0156 1.9517-4.4784-9.5287-4.4784-11.901 0-16.242 1.6096-14.76 5.472 1.0277 2.6782 22.238 1.8106 24.289-0.99361zm1854.3 0.58254c1.8827-1.1913 0.1706-3.36-4.0245-5.0977-3.8726-1.6041-5.3793-0.32463-3.9731 3.3739 1.0641 2.7988 4.9686 3.6404 7.9976 1.7237zm-401.72-0.94419c7.1701-0.89636 7.3337-1.0833 5.7852-6.6138-1.5757-5.628-1.9278-5.8492-6.3624-3.9963-1.9658 0.82135-5.8093 1.4934-8.5412 1.4934-9.2306 0-12.135 2.6452-8.5405 7.7775 1.7053 2.4347 6.181 2.7741 17.659 1.3392zm461.8-7.14c0-1.3053-4.789-3.5229-5.6812-2.6307-0.7909 0.79086 2.6158 3.5741 4.4312 3.6203 0.6875 0.0175 1.25-0.42785 1.25-0.98964zm-1105.8-3.62c1.7559-0.49754 2.4912-4.785 0.9807-5.7185-0.4231-0.26149-5.7106-0.60069-11.75-0.75378l-10.981-0.27835-0.3223 2.7552c-0.6338 5.4194 10.155 7.3723 22.072 3.9954zm-801.28-2.178c1.3933-1.036 2.6662-2.7688 2.8288-3.8505 0.31731-2.1113 0.82767-2.0827-17.53-0.9839-4.9299 0.29507-9.2655 2.5592-9.2655 4.8385 0 3.3615 19.445 3.3581 23.967-0.004zm834.6 0.76121c5.7278-4.7536-5.0663-8.2495-17.562-5.6878-6.8557 1.4055-8.5123 3.2226-5.856 6.4233 1.6336 1.9683 20.889 1.3635 23.418-0.73556zm576.58-1.9694c10.171-2.8251 5.1639-8.2534-7.9436-8.6113-11.448-0.31258-11.484-0.29287-10.027 5.4468l1.0635 4.1896 6.6283-0.006c3.6456-0.003 8.2711-0.46185 10.279-1.0195zm26.972-3.2496c1.3074-0.81806 3.6445-1.782 5.1935-2.1421 1.9479-0.45279 2.7147-1.1834 2.4865-2.369-0.578-3.0031-23.186-2.5396-23.616 0.48415-0.8859 6.2266 8.5923 8.6217 15.936 4.0269zm454.69-0.46384c-0.3873-2.0111-3.5542-2.9191-5.0309-1.4424-1.5038 1.5038-0.0004 3.1809 2.8514 3.1809 1.85 0 2.4259-0.45935 2.1795-1.7385zm-1094-5.9055c1.9467-0.5214 2.2558-1.1762 2-4.2363l-0.3-3.61-8.5-0.27c-12.155-0.38132-18.968 3.9062-11.921 7.5019 2.5221 1.2868 14.726 1.6914 18.724 0.6207zm1082.7-1.3998c0.6453-1.0442-1.1642-3.9562-2.4584-3.9562-1.6455 0-4.3103 2.8-3.6625 3.8483 0.8884 1.4373 5.2517 1.5142 6.1209 0.1079zm-1875.5-2.38c11.745-4.4427 9.0504-7.0278-6.0308-5.7864-11.269 0.92759-14.751 2.3672-13.658 5.6459 0.95419 2.8626 12.28 2.9434 19.689 0.14047zm825.8 1.7832c1.7792-0.47652 2.2346-1.2136 2-3.2363l-0.3-2.61h-12-12l-0.3134 3.25-0.3133 3.25 10.313-0.0136c5.6724-0.008 11.35-0.29133 12.617-0.63071zm574.3-2.487c5.2391-1.7437 6.2361-3.0352 4.791-6.2067-1.3076-2.8699-19.79-4.2544-21.427-1.6051-3.4812 5.6327 7.5789 10.826 16.636 7.8118zm35.216-2.7805c1.3712-0.0665 1.7389-0.7536 1.5-2.8026-0.5979-5.1294-21.048-6.077-24.156-1.1194-2.6138 4.1689 1.8048 4.9338 22.656 3.922zm430.09-2.9428c0.6754-1.0929-4.1793-5.7096-5.0687-4.8202-0.3665 0.36652-0.1529 1.7933 0.4746 3.1706 1.1205 2.4593 3.5537 3.333 4.5941 1.6496zm-1073-5.243c1.8239-1.6983-0.6608-2.3411-10.569-2.7342-10.355-0.41077-12.68 0.2654-11.498 3.3447 0.6896 1.7971 20.056 1.2613 22.067-0.61056zm33.058-1.0447c1.8857-1.7893-1.4846-2.5264-9.7795-2.1387-9.6729 0.45208-12.712 0.98611-12.712 2.2337 0 2.0692 20.301 1.9835 22.492-0.0949zm-815.57 0.50863c3.19-0.64 6.07-4.406 6.07-7.948 0-1.4356-0.75553-1.587-5.25-1.0522-2.8875 0.34356-7.95 0.91064-11.25 1.2602-6.2558 0.66262-7.9449 1.4639-9.5984 4.5534-1.7319 3.2361 10.235 5.1388 20.017 3.1825zm1387.3-3.423c5.4804-1.522 4.7969-3.5924-1.382-4.1861-5.0938-0.48945-11.868 0.85578-11.868 2.3568 0 2.6341 6.9145 3.5888 13.25 1.8293zm23.8-1.838c10.484-2.5254 10.322-4.6543-0.3392-4.4844-8.265 0.13167-11.536 1.6511-10.329 4.7976 0.7476 1.9484 1.354 1.9306 10.668-0.31315zm-629.68-4.0267c2.1-2.042-0.7-3.082-8.2-3.082-8.2709 0-12.324 1.8616-8.9991 4.1335 1.6899 1.1547 15.914 0.28836 17.253-1.0509zm22.92-0.35986c3.6438-0.67251 6.5436-1.6727 6.444-2.2227-0.2784-1.5382-17.307-1.275-18.873 0.29164-2.8593 2.86 2.7087 3.7251 12.429 1.9311zm-805.1-4.867c7.9708-2.6851 6.9678-4.8147-2.2794-4.8396-6.7974-0.01833-10.439 2.3287-7.2412 4.667 2.2153 1.6199 5.0706 1.6716 9.5206 0.17258zm1388.8-0.279c2.7535-1.7018-0.9374-16.467-4.6073-18.431-1.0628-0.56878-10.018-1.0705-20.335-1.1393-10.14-0.06765-33.736-0.25223-52.436-0.41018s-89.35-0.5839-157-0.94655-156.98-0.86799-198.5-1.123c-185.5-1.1391-169.52-1.8402-168.47 7.3895 1.26 11.112-5.03 10.025 61.218 10.587 30.113 0.25548 84.452 0.70983 120.75 1.0097 36.3 0.29982 86.475 0.74414 111.5 0.98738 25.025 0.24323 99.725 0.72285 166 1.0658 66.275 0.34296 122.3 0.96688 124.5 1.3865 4.9035 0.93524 15.632 0.70341 17.378-0.37551zm-610.37-4.5778c3.2793-1.2468 3.8751-4.1947 2.0725-10.254-2.5139-8.4494-2.2696-8.3-12.796-7.8267-13.67 0.61465-39.672 0.52897-70.783-0.23322-15.125-0.37056-50.851-0.86533-79.392-1.0995-38.552-0.3163-52.08-0.73068-52.625-1.612-0.5321-0.86093-0.9224-0.8799-1.4235-0.06917-0.5053 0.81757-31.84 0.9673-116.88 0.55849-63.9-0.306-127.7-0.509-141.7-0.449-60.884 0.25904-142.2 0.06009-217.31-0.53167-91.399-0.72013-83.282-1.4395-88.598 7.8514-6.1628 10.771-12.835 9.9451 82.904 10.267 206.99 0.69511 653.26 3.3312 653.79 3.8619 0.7524 0.7455 40.674 0.31331 42.715-0.46242zm52.7 809.34c-1.823-0.7356-1.5288-4.0168 0.4275-4.7675 2.5422-0.97552 5.0211 1.8831 3.3642 3.8796-1.3461 1.6219-1.7426 1.7148-3.7917 0.88791zm-10.146-4.238c-2.127-1.3682-0.5262-4.2986 2.1412-3.9198 1.4752 0.20948 2.2545 1.0067 2.2545 2.3064 0 2.1921-2.226 3.0091-4.3957 1.6134z"/>
</svg>
