<?xml version="1.0" encoding="UTF-8"?>
<svg xmlns="http://www.w3.org/2000/svg" id="Layer_1" data-name="Layer 1" viewBox="0 0 55 55" width="512" height="512"><path d="M45.94,52.25H9.06a6.32,6.32,0,0,1-6.31-6.31V9.06A6.32,6.32,0,0,1,9.06,2.75H45.94a6.32,6.32,0,0,1,6.31,6.31V45.94A6.32,6.32,0,0,1,45.94,52.25ZM9.06,4.25A4.82,4.82,0,0,0,4.25,9.06V45.94a4.82,4.82,0,0,0,4.81,4.81H45.94a4.82,4.82,0,0,0,4.81-4.81V9.06a4.82,4.82,0,0,0-4.81-4.81Z"/><path d="M23,25.39H9.67A2.37,2.37,0,0,1,7.31,23V9.72A2.36,2.36,0,0,1,9.67,7.36H23a2.37,2.37,0,0,1,2.37,2.36V23A2.37,2.37,0,0,1,23,25.39ZM9.67,8.86a.87.87,0,0,0-.86.86V23a.87.87,0,0,0,.86.87H23a.87.87,0,0,0,.87-.87V9.72A.87.87,0,0,0,23,8.86Z"/><path d="M45.33,25.39H32A2.37,2.37,0,0,1,29.66,23V9.72A2.37,2.37,0,0,1,32,7.36h13.3a2.36,2.36,0,0,1,2.36,2.36V23A2.37,2.37,0,0,1,45.33,25.39ZM32,8.86a.87.87,0,0,0-.87.86V23a.87.87,0,0,0,.87.87h13.3a.87.87,0,0,0,.86-.87V9.72a.87.87,0,0,0-.86-.86Z"/><path d="M23,47.64H9.67a2.36,2.36,0,0,1-2.36-2.36V32a2.37,2.37,0,0,1,2.36-2.37H23A2.37,2.37,0,0,1,25.34,32v13.3A2.37,2.37,0,0,1,23,47.64ZM9.67,31.11a.87.87,0,0,0-.86.87v13.3a.87.87,0,0,0,.86.86H23a.87.87,0,0,0,.87-.86V32a.87.87,0,0,0-.87-.87Z"/><path d="M45.33,47.64H32a2.37,2.37,0,0,1-2.37-2.36V32A2.37,2.37,0,0,1,32,29.61h13.3A2.37,2.37,0,0,1,47.69,32v13.3A2.36,2.36,0,0,1,45.33,47.64ZM32,31.11a.87.87,0,0,0-.87.87v13.3a.87.87,0,0,0,.87.86h13.3a.87.87,0,0,0,.86-.86V32a.87.87,0,0,0-.86-.87Z"/></svg>
